<svg xmlns="http://www.w3.org/2000/svg" viewBox="0 0 48 48"><g data-name="Ads Block"><path fill="#42a5f5" d="M44,2H4A4,4,0,0,0,0,6V34a4,4,0,0,0,4,4H8.52a13.74,13.74,0,0,1-.76-2H4a2,2,0,0,1-2-2V10H46V34a2,2,0,0,1-2,2H40.24a13.74,13.74,0,0,1-.76,2H44a4,4,0,0,0,4-4V6A4,4,0,0,0,44,2ZM5,7A1,1,0,0,1,5,5,1,1,0,0,1,5,7ZM9,7A1,1,0,0,1,9,5,1,1,0,0,1,9,7Zm4,0a1,1,0,0,1,0-2A1,1,0,0,1,13,7Z"/><path fill="#42a5f5" d="M16.89 26.55a1 1 0 0 0-1.78 0l-2 4C13 30.84 13 30.69 13 35a1 1 0 0 0 2 0V33h2v2a1 1 0 0 0 2 0V31C19 30.66 19.05 30.87 16.89 26.55zM16 29.24L16.88 31H15.12zM24 26H22a1 1 0 0 0-1 1v8a1 1 0 0 0 1 1h2a3 3 0 0 0 3-3V29A3 3 0 0 0 24 26zm1 7a1 1 0 0 1-1 1H23V28h1a1 1 0 0 1 1 1zM32 30a1 1 0 0 1 0-2h2a1 1 0 0 0 0-2H32a3 3 0 0 0 0 6 1 1 0 0 1 0 2H30a1 1 0 0 0 0 2h2a3 3 0 0 0 0-6z"/><path fill="#424242" d="M34.63,20.43C26.17,11.15,9,17.14,9,31A15,15,0,0,0,24,46C37.33,46,44,29.84,34.63,20.43ZM24,18a13,13,0,0,1,8.45,3.14L14.14,39.45A13,13,0,0,1,24,18Zm0,26a13,13,0,0,1-8.45-3.14L33.86,22.55A13,13,0,0,1,24,44Z"/></g></svg>