<svg xmlns="http://www.w3.org/2000/svg" enable-background="new 0 0 75 75" viewBox="0 0 75 75"><path fill="#41d88d" d="M-64.721 39.104c-1.062-1.063-2.914-1.063-3.978 0l-8.114 8.114c-.391.391-1.023.391-1.414 0l-8.114-8.114c-.531-.532-1.237-.824-1.988-.824-.751 0-1.458.293-1.989.824-.529.53-.821 1.236-.821 1.988 0 .752.292 1.459.822 1.99l10.81 10.81c1.064 1.062 2.915 1.062 3.978-.001l10.811-10.81C-63.624 41.984-63.625 40.201-64.721 39.104zM-77.538 6.539c-1.551 0-2.813 1.261-2.813 2.812v23.356c0 1.551 1.262 2.813 2.813 2.813 1.55 0 2.812-1.262 2.812-2.813V9.351C-74.727 7.8-75.988 6.539-77.538 6.539z"/><path d="M-77.538,37.519c-2.654,0-4.813-2.159-4.813-4.813V9.351c0-2.653,2.159-4.812,4.813-4.812c2.653,0,4.812,2.159,4.812,4.812v23.356C-72.727,35.36-74.885,37.519-77.538,37.519z M-77.538,6.539c-1.551,0-2.813,1.261-2.813,2.812v23.356c0,1.551,1.262,2.813,2.813,2.813c1.55,0,2.812-1.262,2.812-2.813V9.351C-74.727,7.8-75.988,6.539-77.538,6.539z"/><path fill="#41d88d" d="M-59.356,62.837h-36.287c-1.551,0-2.813,1.262-2.813,2.813s1.262,2.812,2.813,2.812h36.287c1.551,0,2.813-1.262,2.813-2.813S-57.806,62.837-59.356,62.837z"/><path d="M-59.356,70.461h-36.287c-2.654,0-4.813-2.159-4.813-4.812c0-2.654,2.159-4.813,4.813-4.813h36.287c2.654,0,4.813,2.159,4.813,4.812C-54.544,68.303-56.703,70.461-59.356,70.461z M-95.644,62.837c-1.551,0-2.813,1.262-2.813,2.813s1.262,2.812,2.813,2.812h36.287c1.551,0,2.813-1.262,2.813-2.813s-1.262-2.812-2.813-2.812H-95.644z"/><path fill="#fff" d="M-75.597,53.793c-1.018,0-1.975-0.396-2.696-1.116l-10.81-10.811c-0.718-0.719-1.114-1.676-1.114-2.696c0-0.056,0.015-0.108,0.018-0.163c-0.038,0.034-0.082,0.061-0.119,0.098c-0.529,0.53-0.821,1.236-0.821,1.988c0,0.752,0.292,1.459,0.822,1.99l10.81,10.81c1.064,1.062,2.915,1.062,3.978-0.001l0.115-0.115C-75.476,53.779-75.535,53.793-75.597,53.793z"/><path d="M-77.52,56.715c-1.284,0-2.492-0.5-3.402-1.409l-10.811-10.811c-0.908-0.909-1.407-2.117-1.407-3.403c0-1.286,0.5-2.494,1.407-3.402c0.91-0.909,2.118-1.41,3.404-1.41c1.286,0,2.495,0.501,3.403,1.411l7.407,7.406l7.407-7.407c0.909-0.909,2.118-1.41,3.403-1.41c1.286,0,2.495,0.501,3.403,1.411c1.875,1.875,1.876,4.927,0.001,6.804l-10.811,10.811C-75.026,56.215-76.234,56.715-77.52,56.715z M-88.329,38.28c-0.751,0-1.458,0.293-1.989,0.824c-0.529,0.53-0.821,1.236-0.821,1.988c0,0.752,0.292,1.459,0.822,1.99l10.81,10.81c1.064,1.062,2.915,1.062,3.978-0.001l10.811-10.81c1.096-1.097,1.095-2.88-0.001-3.977c-1.062-1.063-2.914-1.063-3.978,0l-8.114,8.114c-0.391,0.391-1.023,0.391-1.414,0l-8.114-8.114C-86.872,38.573-87.578,38.28-88.329,38.28z"/><path fill="#ef3039" d="M382.52 13.743c.256 0 .512.098.707.293l8.113 8.114c1.064 1.063 2.916 1.063 3.979 0 .529-.529.82-1.235.82-1.988s-.291-1.459-.82-1.989L384.508 7.362c-1.063-1.063-2.914-1.062-3.977.001l-10.813 10.81c-1.095 1.097-1.094 2.881.002 3.977 1.066 1.064 2.919 1.062 3.976.001l8.116-8.115C382.008 13.84 382.264 13.743 382.52 13.743zM382.539 25.735c-1.551 0-2.813 1.262-2.813 2.813v22.356c0 1.551 1.262 2.812 2.813 2.812s2.813-1.261 2.813-2.812V28.547C385.352 26.997 384.09 25.735 382.539 25.735z"/><path d="M382.539,55.715c-2.653,0-4.813-2.159-4.813-4.812V28.547c0-2.654,2.159-4.813,4.813-4.813s4.813,2.159,4.813,4.813v22.356C387.352,53.557,385.192,55.715,382.539,55.715z M382.539,25.735c-1.551,0-2.813,1.262-2.813,2.813v22.356c0,1.551,1.262,2.812,2.813,2.812s2.813-1.261,2.813-2.812V28.547C385.352,26.997,384.09,25.735,382.539,25.735z"/><path fill="#ef3039" d="M400.645,62.837h-36.289c-1.551,0-2.813,1.262-2.813,2.813s1.262,2.812,2.813,2.812h36.289c1.551,0,2.813-1.262,2.813-2.813S402.195,62.837,400.645,62.837z"/><path d="M400.645,70.461h-36.289c-2.653,0-4.813-2.159-4.813-4.812c0-2.654,2.159-4.813,4.813-4.813h36.289c2.653,0,4.813,2.159,4.813,4.812C405.457,68.303,403.298,70.461,400.645,70.461z M364.355,62.837c-1.551,0-2.813,1.262-2.813,2.813s1.262,2.812,2.813,2.812h36.289c1.551,0,2.813-1.262,2.813-2.813s-1.262-2.812-2.813-2.812H364.355z"/><path fill="#fff" d="M395.318,22.149c0.529-0.529,0.82-1.235,0.82-1.988s-0.291-1.459-0.82-1.989L384.508,7.362c-1.063-1.063-2.914-1.062-3.977,0.001l-0.074,0.074c0.061-0.003,0.12-0.018,0.181-0.018c1.018,0,1.975,0.396,2.695,1.116l10.811,10.811c0.719,0.719,1.114,1.676,1.114,2.696c0,0.059-0.017,0.114-0.019,0.172C395.264,22.19,395.294,22.174,395.318,22.149z"/><path d="M393.33,24.974c-1.285,0-2.494-0.5-3.404-1.41l-7.406-7.407l-7.408,7.407c-0.906,0.909-2.115,1.41-3.402,1.41c-1.284,0-2.492-0.5-3.402-1.41c-1.875-1.875-1.877-4.928-0.003-6.805l10.813-10.811c0.909-0.909,2.118-1.41,3.402-1.41s2.492,0.5,3.402,1.409l10.811,10.811c0.907,0.907,1.406,2.115,1.406,3.403c0,1.288-0.499,2.496-1.406,3.403C395.823,24.473,394.615,24.974,393.33,24.974z M382.52,13.743c0.256,0,0.512,0.098,0.707,0.293l8.113,8.114c1.064,1.063,2.916,1.063,3.979,0c0.529-0.529,0.82-1.235,0.82-1.988s-0.291-1.459-0.82-1.989L384.508,7.362c-1.063-1.063-2.914-1.062-3.977,0.001l-10.813,10.81c-1.095,1.097-1.094,2.881,0.002,3.977c1.066,1.064,2.919,1.062,3.976,0.001l8.116-8.115C382.008,13.84,382.264,13.743,382.52,13.743z"/><path fill="#ef3039" d="M-46.5,267.5c0-0.751-0.292-1.458-0.824-1.989l-10.81-10.811c-0.531-0.531-1.237-0.823-1.988-0.823c-0.751,0-1.457,0.292-1.988,0.824c-0.531,0.531-0.823,1.237-0.823,1.989s0.292,1.458,0.822,1.989l8.114,8.114c0.391,0.391,0.391,1.023,0,1.414l-8.114,8.114c-0.53,0.53-0.822,1.236-0.822,1.989c0,0.752,0.292,1.458,0.822,1.988c1.064,1.063,2.916,1.063,3.977,0l10.81-10.81C-46.792,268.958-46.5,268.252-46.5,267.5z"/><path fill="#ef3039" d="M-105.688,270.332h40.379c1.551,0,2.813-1.262,2.813-2.813c0-1.55-1.262-2.812-2.813-2.812h-40.379c-1.551,0-2.812,1.261-2.812,2.812C-108.5,269.07-107.239,270.332-105.688,270.332z"/><path d="M-65.309,272.332h-40.379c-2.653,0-4.812-2.159-4.812-4.813c0-2.653,2.159-4.812,4.812-4.812h40.379c2.654,0,4.813,2.158,4.813,4.812C-60.497,270.173-62.655,272.332-65.309,272.332z M-105.688,264.707c-1.551,0-2.812,1.261-2.812,2.812c0,1.552,1.261,2.813,2.812,2.813h40.379c1.551,0,2.813-1.262,2.813-2.813c0-1.55-1.262-2.812-2.813-2.812H-105.688z"/><path fill="#fff" d="M-48.742,268.071l-10.81,10.81c-0.72,0.721-1.677,1.117-2.696,1.117c-0.041,0-0.08-0.01-0.121-0.012c0.081,0.108,0.16,0.216,0.257,0.313c1.064,1.063,2.916,1.063,3.977,0l10.81-10.81c0.532-0.531,0.824-1.237,0.824-1.989c0-0.751-0.292-1.458-0.824-1.989l-0.319-0.319c0.003,0.062,0.018,0.121,0.018,0.183C-47.625,266.393-48.022,267.351-48.742,268.071z"/><path d="M-60.123,283.123c-1.285,0-2.494-0.501-3.403-1.41c-0.908-0.907-1.408-2.116-1.408-3.403c0-1.286,0.5-2.495,1.408-3.402l7.407-7.407l-7.407-7.407c-0.908-0.908-1.408-2.116-1.408-3.403s0.5-2.495,1.408-3.403c0.908-0.909,2.116-1.41,3.402-1.41c1.286,0,2.494,0.5,3.402,1.409l10.811,10.811c0.909,0.91,1.41,2.118,1.41,3.403c0,1.286-0.501,2.495-1.41,3.403l-10.81,10.81C-57.628,282.622-58.837,283.123-60.123,283.123z M-60.123,253.877c-0.751,0-1.457,0.292-1.988,0.824c-0.531,0.531-0.823,1.237-0.823,1.989s0.292,1.458,0.822,1.989l8.114,8.114c0.391,0.391,0.391,1.023,0,1.414l-8.114,8.114c-0.53,0.53-0.822,1.236-0.822,1.989c0,0.752,0.292,1.458,0.822,1.988c1.064,1.063,2.916,1.063,3.977,0l10.81-10.81c0.532-0.531,0.824-1.237,0.824-1.989c0-0.751-0.292-1.458-0.824-1.989l-10.81-10.811C-58.665,254.169-59.372,253.877-60.123,253.877z"/><path fill="#f2bf1c" d="M-108.5,382.5c0,0.751,0.292,1.458,0.824,1.989l10.81,10.811c1.062,1.063,2.915,1.061,3.976-0.001c0.531-0.53,0.823-1.236,0.823-1.988c0-0.753-0.292-1.459-0.822-1.989l-8.114-8.114c-0.391-0.391-0.391-1.023,0-1.414l8.114-8.114c0.53-0.53,0.822-1.236,0.822-1.989c0-0.752-0.292-1.458-0.822-1.988c-0.532-0.531-1.238-0.824-1.989-0.824c-0.751,0-1.458,0.293-1.988,0.824l-10.81,10.81C-108.208,381.042-108.5,381.748-108.5,382.5z"/><path fill="#f2bf1c" d="M-49.312,379.668h-40.379c-1.551,0-2.813,1.262-2.813,2.813c0,1.55,1.262,2.812,2.813,2.812h40.379c1.551,0,2.812-1.262,2.812-2.812C-46.5,380.93-47.761,379.668-49.312,379.668z"/><path d="M-49.312,387.293h-40.379c-2.654,0-4.813-2.158-4.813-4.812c0-2.654,2.159-4.813,4.813-4.813h40.379c2.653,0,4.812,2.159,4.812,4.813C-44.5,385.135-46.659,387.293-49.312,387.293z M-89.691,379.668c-1.551,0-2.813,1.262-2.813,2.813c0,1.55,1.262,2.812,2.813,2.812h40.379c1.551,0,2.812-1.262,2.812-2.812c0-1.552-1.261-2.813-2.812-2.813H-89.691z"/><path fill="#fff" d="M-106.008,382.179l10.81-10.81c0.72-0.721,1.677-1.117,2.696-1.117c0.011,0,0.022,0.003,0.033,0.003c-0.118-0.198-0.252-0.387-0.419-0.554c-0.532-0.531-1.238-0.824-1.989-0.824c-0.751,0-1.458,0.293-1.988,0.824l-10.81,10.81c-0.532,0.531-0.824,1.237-0.824,1.989c0,0.751,0.292,1.458,0.824,1.989l0.569,0.569c-0.003-0.062-0.018-0.121-0.018-0.183C-107.125,383.857-106.728,382.899-106.008,382.179z"/><path d="M-94.877,398.123c-1.286,0-2.494-0.5-3.402-1.409l-10.811-10.811c-0.909-0.909-1.41-2.118-1.41-3.403c0-1.286,0.501-2.495,1.41-3.403l10.81-10.81c0.909-0.909,2.117-1.41,3.403-1.41c1.285,0,2.494,0.501,3.403,1.41c0.908,0.907,1.408,2.116,1.408,3.403c0,1.286-0.5,2.495-1.408,3.402l-7.407,7.407l7.407,7.407c0.908,0.907,1.408,2.116,1.408,3.403c0,1.286-0.5,2.495-1.408,3.402C-92.383,397.622-93.591,398.123-94.877,398.123z M-94.877,368.877c-0.751,0-1.458,0.293-1.988,0.824l-10.81,10.81c-0.532,0.531-0.824,1.237-0.824,1.989c0,0.751,0.292,1.458,0.824,1.989l10.81,10.811c1.062,1.063,2.915,1.061,3.976-0.001c0.531-0.53,0.823-1.236,0.823-1.988c0-0.753-0.292-1.459-0.822-1.989l-8.114-8.114c-0.391-0.391-0.391-1.023,0-1.414l8.114-8.114c0.53-0.53,0.822-1.236,0.822-1.989c0-0.752-0.292-1.458-0.822-1.988C-93.42,369.17-94.126,368.877-94.877,368.877z"/><path fill="#41d88d" d="M381.793,358.997c0.391-0.391,1.023-0.391,1.414,0l8.114,8.113c0.53,0.53,1.236,0.822,1.989,0.822c0.752,0,1.458-0.291,1.988-0.821c0.531-0.531,0.824-1.238,0.824-1.989s-0.293-1.457-0.824-1.987l-10.81-10.811c-0.531-0.531-1.237-0.824-1.989-0.824c-0.751,0-1.458,0.293-1.989,0.824L369.7,363.135c-0.531,0.531-0.823,1.237-0.823,1.988s0.293,1.457,0.824,1.987c1.095,1.097,2.879,1.098,3.978,0.001L381.793,358.997z"/><path fill="#41d88d" d="M382.519,367.497c-1.55,0-2.812,1.262-2.812,2.813v40.379c0,1.55,1.262,2.812,2.812,2.812c1.552,0,2.813-1.262,2.813-2.813V370.31C385.332,368.759,384.07,367.497,382.519,367.497z"/><path d="M382.519,415.5c-2.653,0-4.812-2.158-4.812-4.812V370.31c0-2.653,2.158-4.813,4.812-4.813c2.654,0,4.813,2.159,4.813,4.813v40.378C387.332,413.341,385.173,415.5,382.519,415.5z M382.519,367.497c-1.55,0-2.812,1.262-2.812,2.813v40.379c0,1.55,1.262,2.812,2.812,2.812c1.552,0,2.813-1.262,2.813-2.813V370.31C385.332,368.759,384.07,367.497,382.519,367.497z"/><path d="M393.311,369.933C393.311,369.933,393.311,369.933,393.311,369.933c-1.287,0-2.496-0.5-3.403-1.408l-7.407-7.406l-7.407,7.407c-1.876,1.876-4.928,1.878-6.806,0c-0.909-0.908-1.41-2.116-1.41-3.402c0-1.285,0.5-2.494,1.409-3.402l10.811-10.811c0.909-0.909,2.118-1.41,3.403-1.41c1.287,0,2.495,0.501,3.404,1.41l10.809,10.81c0.909,0.908,1.41,2.116,1.41,3.402c0,1.285-0.501,2.494-1.41,3.403C395.806,369.434,394.597,369.933,393.311,369.933z M382.5,351.5c-0.751,0-1.458,0.293-1.989,0.824L369.7,363.135c-0.531,0.531-0.823,1.237-0.823,1.988s0.293,1.457,0.824,1.987c1.095,1.097,2.879,1.098,3.978,0.001l8.114-8.114c0.391-0.391,1.023-0.391,1.414,0l8.114,8.113c0.53,0.53,1.236,0.822,1.989,0.822l0,0c0.752,0,1.458-0.291,1.988-0.821c0.531-0.531,0.824-1.238,0.824-1.989s-0.293-1.457-0.824-1.987l-10.81-10.811C383.958,351.793,383.252,351.5,382.5,351.5z"/><path fill="#fff" d="M395.299,363.135l-10.81-10.811c-0.531-0.531-1.237-0.824-1.989-0.824c-0.751,0-1.458,0.293-1.989,0.824l-0.84,0.84c0.062-0.003,0.121-0.018,0.183-0.018c1.019,0,1.977,0.397,2.696,1.117l10.81,10.81c0.699,0.698,1.085,1.621,1.108,2.605c0.305-0.138,0.588-0.324,0.831-0.567c0.531-0.531,0.824-1.238,0.824-1.989S395.83,363.665,395.299,363.135z"/><path fill="#41d88d" d="M174.078 478.134l-10.81-10.81c-1.063-1.063-2.915-1.063-3.978 0l-10.811 10.811c-.531.531-.823 1.237-.823 1.988s.292 1.457.824 1.988c1.061 1.061 2.917 1.061 3.977 0l8.114-8.114c.195-.195.451-.293.707-.293s.512.098.707.293l8.114 8.114c1.099 1.096 2.881 1.096 3.978 0 .531-.531.824-1.237.824-1.988S174.609 478.665 174.078 478.134zM145.708 486.133c-.532-.531-1.238-.824-1.989-.824-.751 0-1.458.293-1.988.824l-10.81 10.81c-.532.531-.824 1.237-.824 1.989 0 .751.292 1.458.824 1.989l10.81 10.811c1.062 1.063 2.915 1.062 3.976-.001.531-.53.823-1.236.823-1.988 0-.753-.292-1.459-.822-1.989l-8.114-8.114c-.391-.391-.391-1.023 0-1.414l8.114-8.114c.53-.53.822-1.236.822-1.989C146.53 487.369 146.238 486.663 145.708 486.133z"/><path d="M143.72,514.555c-1.286,0-2.494-0.5-3.402-1.409l-10.811-10.811c-0.909-0.909-1.41-2.118-1.41-3.403c0-1.286,0.501-2.495,1.41-3.403l10.81-10.81c0.909-0.909,2.117-1.41,3.403-1.41c1.285,0,2.494,0.501,3.403,1.41c0.908,0.907,1.408,2.116,1.408,3.403c0,1.286-0.5,2.495-1.408,3.402l-7.407,7.407l7.407,7.407c0.908,0.907,1.408,2.116,1.408,3.403c0,1.286-0.5,2.495-1.408,3.402C146.214,514.054,145.006,514.555,143.72,514.555z M143.72,485.309c-0.751,0-1.458,0.293-1.988,0.824l-10.81,10.81c-0.532,0.531-0.824,1.237-0.824,1.989c0,0.751,0.292,1.458,0.824,1.989l10.81,10.811c1.062,1.063,2.915,1.062,3.976-0.001c0.531-0.53,0.823-1.236,0.823-1.988c0-0.753-0.292-1.459-0.822-1.989l-8.114-8.114c-0.391-0.391-0.391-1.023,0-1.414l8.114-8.114c0.53-0.53,0.822-1.236,0.822-1.989c0-0.752-0.292-1.458-0.822-1.988C145.177,485.602,144.471,485.309,143.72,485.309z"/><path fill="#41d88d" d="M161.299,528.5c1.551,0,2.813-1.262,2.813-2.813V485.31c0-1.551-1.262-2.813-2.813-2.813s-2.813,1.262-2.813,2.813v9.79c0,0.553-0.447,1-1,1h-8.58c-1.551,0-2.813,1.262-2.813,2.813c0,1.55,1.262,2.812,2.813,2.812h8.58c0.553,0,1,0.447,1,1v22.963C158.486,527.238,159.748,528.5,161.299,528.5z"/><path d="M161.299,530.5c-2.653,0-4.813-2.159-4.813-4.813v-21.963h-7.58c-2.654,0-4.813-2.158-4.813-4.812c0-2.654,2.159-4.813,4.813-4.813h7.58v-8.79c0-2.653,2.159-4.813,4.813-4.813s4.813,2.159,4.813,4.813v40.378C166.111,528.341,163.952,530.5,161.299,530.5z M148.907,496.1c-1.551,0-2.813,1.262-2.813,2.813c0,1.55,1.262,2.812,2.813,2.812h8.58c0.553,0,1,0.447,1,1v22.963c0,1.551,1.262,2.813,2.813,2.813s2.813-1.262,2.813-2.813V485.31c0-1.551-1.262-2.813-2.813-2.813s-2.813,1.262-2.813,2.813v9.79c0,0.553-0.447,1-1,1H148.907z"/><path fill="#fff" d="M174.078,478.134l-10.81-10.81c-1.063-1.063-2.915-1.063-3.978,0l-0.412,0.412c0.061-0.003,0.12-0.018,0.182-0.018c1.019,0,1.977,0.397,2.696,1.117l10.81,10.81c0.721,0.72,1.117,1.677,1.117,2.696c0,0.034-0.009,0.066-0.01,0.099c0.142-0.097,0.278-0.204,0.404-0.329c0.531-0.531,0.824-1.237,0.824-1.988S174.609,478.665,174.078,478.134z"/><path d="M150.47,484.933c-1.287,0-2.495-0.499-3.403-1.407c-0.909-0.908-1.41-2.116-1.41-3.402c0-1.285,0.5-2.494,1.409-3.402l10.811-10.811c0.909-0.909,2.117-1.41,3.402-1.41s2.494,0.501,3.403,1.41l10.81,10.81c0.909,0.909,1.41,2.118,1.41,3.403s-0.501,2.493-1.41,3.402c-1.878,1.878-4.93,1.876-6.806,0l-7.407-7.407l-7.407,7.407C152.965,484.434,151.756,484.933,150.47,484.933z M161.279,473.704c0.256,0,0.512,0.098,0.707,0.293l8.114,8.114c1.099,1.096,2.881,1.096,3.978,0c0.531-0.531,0.824-1.237,0.824-1.988s-0.293-1.458-0.824-1.989l-10.81-10.81c-1.063-1.063-2.915-1.063-3.978,0l-10.811,10.811c-0.531,0.531-0.823,1.237-0.823,1.988s0.292,1.457,0.824,1.988c1.061,1.061,2.917,1.061,3.977,0l8.114-8.114C160.768,473.802,161.023,473.704,161.279,473.704z"/><path fill="#37c3f4" d="M252.093,467.344c-0.531-0.531-1.238-0.824-1.989-0.824s-1.457,0.293-1.987,0.824l-10.811,10.81c-0.531,0.531-0.824,1.237-0.824,1.989c0,0.75,0.293,1.457,0.824,1.988l10.81,10.811c1.063,1.063,2.914,1.063,3.977,0c0.53-0.53,0.822-1.236,0.822-1.988c0-0.753-0.292-1.459-0.822-1.989l-8.113-8.114c-0.391-0.391-0.391-1.023,0-1.414l8.113-8.114c0.53-0.53,0.822-1.236,0.822-1.989C252.914,468.58,252.623,467.874,252.093,467.344z"/><path fill="#fff" d="M238.598,479.446l10.81-10.81c0.72-0.721,1.677-1.117,2.696-1.117c0.049,0,0.096,0.013,0.145,0.015c-0.053-0.063-0.097-0.132-0.156-0.19c-0.531-0.531-1.238-0.824-1.989-0.824s-1.457,0.293-1.987,0.824l-10.811,10.81c-0.531,0.531-0.824,1.237-0.824,1.989c0,0.75,0.293,1.457,0.824,1.988l0.193,0.193c-0.003-0.061-0.018-0.12-0.018-0.182C237.481,481.124,237.878,480.166,238.598,479.446z"/><path d="M250.104,495.765c-1.285,0-2.494-0.5-3.402-1.409l-10.811-10.811c-0.909-0.91-1.409-2.118-1.409-3.402c0-1.287,0.501-2.495,1.41-3.404l10.81-10.809c0.908-0.909,2.116-1.41,3.402-1.41c1.285,0,2.494,0.501,3.403,1.41c0.908,0.908,1.408,2.116,1.407,3.403c0,1.286-0.5,2.495-1.408,3.402l-7.406,7.407l7.406,7.407c0.908,0.907,1.408,2.116,1.408,3.403c0,1.286-0.5,2.495-1.408,3.402C252.598,495.265,251.389,495.765,250.104,495.765z M250.104,466.52c-0.751,0-1.457,0.293-1.987,0.824l-10.811,10.81c-0.531,0.531-0.824,1.237-0.824,1.989c0,0.75,0.293,1.457,0.824,1.988l10.81,10.811c1.063,1.063,2.914,1.063,3.977,0c0.53-0.53,0.822-1.236,0.822-1.988c0-0.753-0.292-1.459-0.822-1.989l-8.113-8.114c-0.391-0.391-0.391-1.023,0-1.414l8.113-8.114c0.53-0.53,0.822-1.236,0.822-1.989c0-0.752-0.291-1.458-0.821-1.988C251.562,466.813,250.854,466.52,250.104,466.52z"/><path fill="#37c3f4" d="M286.885,492.941l10.811-10.811c0.53-0.531,0.823-1.238,0.823-1.988c0-0.752-0.293-1.458-0.824-1.988l-10.81-10.811c-0.531-0.531-1.237-0.824-1.988-0.824s-1.458,0.293-1.989,0.824c-0.53,0.53-0.821,1.236-0.821,1.988c0,0.753,0.292,1.459,0.822,1.989l8.113,8.114c0.391,0.391,0.391,1.023,0,1.414l-8.113,8.114c-0.53,0.53-0.822,1.236-0.822,1.989c0,0.752,0.292,1.458,0.822,1.988C283.971,494.004,285.822,494.004,286.885,492.941z"/><path d="M284.896,495.765c-1.285,0-2.494-0.5-3.402-1.409c-0.908-0.907-1.408-2.116-1.408-3.402c0-1.287,0.5-2.496,1.408-3.403l7.406-7.407l-7.406-7.407c-0.908-0.907-1.408-2.116-1.408-3.402c-0.001-1.287,0.499-2.495,1.407-3.403c0.909-0.909,2.118-1.41,3.403-1.41c1.286,0,2.494,0.501,3.403,1.41l10.809,10.81c0.909,0.908,1.41,2.116,1.41,3.403c0,1.284-0.5,2.492-1.408,3.402l-10.812,10.811C287.391,495.265,286.182,495.765,284.896,495.765z M284.896,466.52c-0.751,0-1.458,0.293-1.989,0.824c-0.53,0.53-0.821,1.236-0.821,1.988c0,0.753,0.292,1.459,0.822,1.989l8.113,8.114c0.391,0.391,0.391,1.023,0,1.414l-8.113,8.114c-0.53,0.53-0.822,1.236-0.822,1.989c0,0.752,0.292,1.458,0.822,1.988c1.063,1.063,2.914,1.063,3.977,0l10.811-10.811c0.53-0.531,0.823-1.238,0.823-1.988c0-0.752-0.293-1.458-0.824-1.988l-10.81-10.811C286.354,466.813,285.647,466.52,284.896,466.52z"/><path fill="#37c3f4" d="M270.313,483.936c0-0.553,0.447-1,1-1h8.396c1.551,0,2.813-1.262,2.813-2.813s-1.262-2.813-2.813-2.813H255.29c-1.551,0-2.813,1.262-2.813,2.813s1.262,2.813,2.813,2.813h8.397c0.553,0,1,0.447,1,1v41.733c0,1.55,1.262,2.812,2.813,2.812s2.813-1.262,2.813-2.812V483.936z"/><path d="M267.5,530.48c-2.653,0-4.813-2.158-4.813-4.812v-40.733h-7.397c-2.653,0-4.813-2.159-4.813-4.813s2.159-4.813,4.813-4.813h24.419c2.653,0,4.813,2.159,4.813,4.813s-2.159,4.813-4.813,4.813h-7.396v40.733C272.313,528.322,270.153,530.48,267.5,530.48z M255.29,477.311c-1.551,0-2.813,1.262-2.813,2.813s1.262,2.813,2.813,2.813h8.397c0.553,0,1,0.447,1,1v41.733c0,1.55,1.262,2.812,2.813,2.812s2.813-1.262,2.813-2.812v-41.733c0-0.553,0.447-1,1-1h8.396c1.551,0,2.813-1.262,2.813-2.813s-1.262-2.813-2.813-2.813H255.29z"/><path fill="#ef3039" d="M-64.7,516.865c0.531-0.531,0.823-1.237,0.823-1.988c0-0.751-0.293-1.457-0.824-1.988c-1.097-1.096-2.881-1.096-3.978,0l-8.114,8.114c-0.391,0.391-1.023,0.391-1.414,0l-8.115-8.113c-0.53-0.53-1.236-0.822-1.989-0.822h0c-0.752,0-1.458,0.291-1.988,0.821c-0.531,0.531-0.824,1.238-0.824,1.989c0,0.751,0.293,1.457,0.824,1.987l10.81,10.811c1.062,1.062,2.914,1.063,3.978,0L-64.7,516.865z"/><path fill="#ef3039" d="M-77.519,466.5c-1.551,0-2.813,1.262-2.813,2.813v40.378c0,1.551,1.262,2.813,2.813,2.813c1.551,0,2.812-1.262,2.812-2.813v-40.379C-74.707,467.762-75.968,466.5-77.519,466.5z"/><path d="M-77.519,514.503c-2.654,0-4.813-2.159-4.813-4.813v-40.378c0-2.653,2.159-4.813,4.813-4.813c2.653,0,4.812,2.158,4.812,4.812v40.379C-72.707,512.344-74.866,514.503-77.519,514.503z M-77.519,466.5c-1.551,0-2.813,1.262-2.813,2.813v40.378c0,1.551,1.262,2.813,2.813,2.813c1.551,0,2.812-1.262,2.812-2.813v-40.379C-74.707,467.762-75.968,466.5-77.519,466.5z"/><path fill="#fff" d="M-66.056,515.51l-10.811,10.811c-0.721,0.72-1.678,1.117-2.696,1.117c-0.062,0-0.121-0.015-0.183-0.018l0.256,0.256c1.062,1.062,2.914,1.063,3.978,0l10.811-10.811c0.531-0.531,0.823-1.237,0.823-1.988c0-0.751-0.293-1.457-0.824-1.988c-0.078-0.078-0.167-0.138-0.251-0.205c0.002,0.044,0.013,0.087,0.013,0.131C-64.94,513.833-65.336,514.791-66.056,515.51z"/><path d="M-77.5,530.5c-1.287,0-2.496-0.501-3.404-1.41l-10.809-10.81c-0.909-0.907-1.41-2.116-1.411-3.402l0,0c0-1.285,0.501-2.494,1.41-3.403c0.908-0.908,2.116-1.407,3.402-1.407h0c1.287,0,2.496,0.5,3.403,1.408l7.407,7.406l7.407-7.407c1.876-1.877,4.93-1.877,6.806,0c0.909,0.908,1.41,2.116,1.41,3.402c0,1.285-0.5,2.494-1.409,3.402l-10.811,10.811C-75.006,529.999-76.214,530.5-77.5,530.5z M-91.123,514.878c0,0.751,0.293,1.457,0.824,1.987l10.81,10.811c1.062,1.062,2.914,1.063,3.978,0l10.811-10.811c0.531-0.531,0.823-1.237,0.823-1.988c0-0.751-0.293-1.457-0.824-1.988c-1.097-1.096-2.881-1.096-3.978,0l-8.114,8.114c-0.391,0.391-1.023,0.391-1.414,0l-8.115-8.113c-0.53-0.53-1.236-0.822-1.989-0.822h0c-0.752,0-1.458,0.291-1.988,0.821C-90.83,513.42-91.123,514.127-91.123,514.878z"/><path fill="#37c3f4" d="M295.671,257.416c1.551,0,2.813-1.262,2.813-2.813v-15.288c0-1.551-1.262-2.813-2.813-2.813h-15.287c-1.551,0-2.813,1.262-2.813,2.813s1.262,2.813,2.813,2.813h11.475c0.553,0,1,0.448,1,1v11.475C292.858,256.154,294.12,257.416,295.671,257.416z"/><path fill="#37c3f4" d="M286.217,252.774c0.531-0.531,0.824-1.237,0.824-1.989c0-0.751-0.292-1.458-0.823-1.988c-0.531-0.532-1.237-0.824-1.989-0.824s-1.457,0.292-1.987,0.823l-44.9,44.9c-0.531,0.531-0.824,1.237-0.824,1.988s0.292,1.457,0.823,1.986c1.063,1.066,2.916,1.064,3.977,0.002L286.217,252.774z"/><path d="M239.329,300.497c-1.286,0-2.495-0.501-3.404-1.411c-0.907-0.907-1.408-2.115-1.408-3.401s0.501-2.494,1.41-3.403l44.899-44.899c0.907-0.909,2.116-1.41,3.402-1.41s2.495,0.501,3.403,1.41c0.909,0.909,1.409,2.117,1.409,3.402s-0.501,2.494-1.41,3.403l-44.899,44.898C241.823,299.996,240.615,300.497,239.329,300.497z M284.229,247.973c-0.752,0-1.457,0.292-1.987,0.823l-44.9,44.9c-0.531,0.531-0.824,1.237-0.824,1.988s0.292,1.457,0.823,1.986c1.063,1.066,2.916,1.064,3.977,0.002l44.9-44.899c0.531-0.531,0.824-1.237,0.824-1.989c0-0.751-0.292-1.458-0.823-1.988C285.687,248.265,284.98,247.973,284.229,247.973z"/><path fill="#fff" d="M295.671,236.503h-15.287c-1.551,0-2.813,1.262-2.813,2.813c0,0.007,0.002,0.014,0.002,0.021c0.694-0.774,1.689-1.271,2.811-1.271h15.287c1.118,0,2.114,0.492,2.812,1.26v-0.01C298.483,237.765,297.222,236.503,295.671,236.503z"/><path d="M295.671,259.416c-2.653,0-4.813-2.159-4.813-4.813v-10.475h-10.475c-2.653,0-4.813-2.159-4.813-4.813s2.159-4.813,4.813-4.813h15.287c2.653,0,4.813,2.159,4.813,4.813v15.288C300.483,257.257,298.324,259.416,295.671,259.416z M280.384,236.503c-1.551,0-2.813,1.262-2.813,2.813s1.262,2.813,2.813,2.813h11.475c0.553,0,1,0.448,1,1v11.475c0,1.551,1.262,2.813,2.813,2.813s2.813-1.262,2.813-2.813v-15.288c0-1.551-1.262-2.813-2.813-2.813H280.384z"/><path fill="#37c3f4" d="M24.603,351.517H9.315c-1.551,0-2.813,1.262-2.813,2.813v15.287c0,1.551,1.262,2.813,2.813,2.813s2.813-1.262,2.813-2.813v-11.475c0-0.553,0.448-1,1-1h11.475c1.551,0,2.813-1.262,2.813-2.813S26.154,351.517,24.603,351.517z"/><path fill="#37c3f4" d="M67.673,408.684l-44.899-44.9c-0.531-0.531-1.237-0.824-1.989-0.824c-0.751,0-1.458,0.292-1.988,0.823c-0.532,0.531-0.824,1.237-0.824,1.989s0.292,1.457,0.823,1.987l44.9,44.9c1.063,1.063,2.916,1.063,3.975,0.001c0.533-0.531,0.826-1.238,0.826-1.989S68.205,409.214,67.673,408.684z"/><path d="M65.685,415.483c-1.286,0-2.495-0.501-3.403-1.41l-44.899-44.899c-0.909-0.907-1.41-2.116-1.41-3.402s0.501-2.495,1.41-3.403c0.909-0.909,2.117-1.409,3.402-1.409s2.494,0.501,3.403,1.41l44.898,44.899c0.909,0.908,1.41,2.116,1.41,3.402s-0.501,2.495-1.412,3.404C68.179,414.982,66.971,415.483,65.685,415.483z M20.785,362.959c-0.751,0-1.458,0.292-1.988,0.823c-0.532,0.531-0.824,1.237-0.824,1.989s0.292,1.457,0.823,1.987l44.9,44.9c1.063,1.063,2.916,1.063,3.975,0.001c0.533-0.531,0.826-1.238,0.826-1.989s-0.292-1.457-0.824-1.987l-44.899-44.9C22.243,363.252,21.537,362.959,20.785,362.959z"/><path fill="#fff" d="M9.315,353.853h15.288c1.07,0,2.027,0.452,2.717,1.167c0.057-0.222,0.096-0.451,0.096-0.691c0-1.551-1.262-2.813-2.813-2.813H9.315c-1.551,0-2.813,1.262-2.813,2.813v0.784C7.201,354.345,8.198,353.853,9.315,353.853z"/><path d="M9.315,374.429c-2.654,0-4.813-2.159-4.813-4.813v-15.287c0-2.653,2.159-4.813,4.813-4.813h15.288c2.654,0,4.813,2.159,4.813,4.813s-2.159,4.813-4.813,4.813H14.128v10.475C14.128,372.27,11.969,374.429,9.315,374.429z M9.315,351.517c-1.551,0-2.813,1.262-2.813,2.813v15.287c0,1.551,1.262,2.813,2.813,2.813s2.813-1.262,2.813-2.813v-11.475c0-0.553,0.448-1,1-1h11.475c1.551,0,2.813-1.262,2.813-2.813s-1.262-2.813-2.813-2.813H9.315z"/><path fill="#ef3039" d="M124.329,392.585c-1.551,0-2.813,1.262-2.813,2.813v15.287c0,1.551,1.262,2.813,2.813,2.813h15.287c1.551,0,2.813-1.262,2.813-2.813s-1.262-2.813-2.813-2.813h-11.475c-0.552,0-1-0.447-1-1v-11.475C127.142,393.847,125.88,392.585,124.329,392.585z"/><path fill="#ef3039" d="M180.671,351.503c-0.751,0-1.457,0.293-1.987,0.824l-44.9,44.899c-0.532,0.531-0.824,1.237-0.824,1.988s0.292,1.457,0.823,1.988c1.063,1.063,2.917,1.063,3.977,0.001l44.9-44.9c0.531-0.531,0.824-1.237,0.824-1.988s-0.292-1.457-0.823-1.986C182.129,351.796,181.422,351.503,180.671,351.503z"/><path d="M135.771,404.027c-1.287,0-2.496-0.501-3.404-1.41c-0.908-0.908-1.409-2.117-1.409-3.402c0-1.286,0.501-2.494,1.411-3.403l44.899-44.898c0.908-0.909,2.116-1.41,3.402-1.41s2.495,0.501,3.404,1.411c0.907,0.907,1.408,2.115,1.408,3.401s-0.501,2.494-1.41,3.403l-44.899,44.899C138.267,403.526,137.058,404.027,135.771,404.027z M180.671,351.503c-0.751,0-1.457,0.293-1.987,0.824l-44.9,44.899c-0.532,0.531-0.824,1.237-0.824,1.988s0.292,1.457,0.823,1.988c1.063,1.063,2.917,1.063,3.977,0.001l44.9-44.9c0.531-0.531,0.824-1.237,0.824-1.988s-0.292-1.457-0.823-1.986C182.129,351.796,181.422,351.503,180.671,351.503z"/><path fill="#fff" d="M124.329,413.497h15.287c1.551,0,2.813-1.262,2.813-2.813c0-0.044-0.011-0.086-0.013-0.13c-0.695,0.766-1.686,1.255-2.8,1.255h-15.287c-1.118,0-2.114-0.492-2.812-1.26v0.135C121.517,412.235,122.778,413.497,124.329,413.497z"/><path d="M139.616,415.497h-15.287c-2.654,0-4.813-2.159-4.813-4.813v-15.287c0-2.653,2.159-4.813,4.813-4.813s4.813,2.159,4.813,4.813v10.475h10.475c2.654,0,4.813,2.159,4.813,4.813S142.27,415.497,139.616,415.497z M124.329,392.585c-1.551,0-2.813,1.262-2.813,2.813v15.287c0,1.551,1.262,2.813,2.813,2.813h15.287c1.551,0,2.813-1.262,2.813-2.813s-1.262-2.813-2.813-2.813h-11.475c-0.552,0-1-0.447-1-1v-11.475C127.142,393.847,125.88,392.585,124.329,392.585z"/><path fill="#ef3039" d="M410.685,277.571c-1.551,0-2.813,1.262-2.813,2.813v11.475c0,0.553-0.447,1-1,1h-11.475c-1.551,0-2.813,1.262-2.813,2.813s1.262,2.813,2.813,2.813h15.287c1.551,0,2.813-1.262,2.813-2.813v-15.287C413.497,278.833,412.235,277.571,410.685,277.571z"/><path fill="#ef3039" d="M356.304,237.341c-0.531-0.532-1.237-0.824-1.988-0.824s-1.457,0.292-1.986,0.823c-0.533,0.532-0.826,1.238-0.826,1.99s0.293,1.457,0.824,1.988l44.899,44.9c1.063,1.063,2.914,1.063,3.977,0.001c0.531-0.531,0.824-1.237,0.824-1.989s-0.292-1.458-0.823-1.987L356.304,237.341z"/><path d="M399.215,289.041c-1.286,0-2.494-0.501-3.403-1.41l-44.898-44.899c-0.909-0.908-1.41-2.116-1.41-3.402s0.501-2.495,1.411-3.404c0.907-0.908,2.115-1.409,3.401-1.409s2.494,0.501,3.403,1.411l44.899,44.899c0.908,0.907,1.409,2.115,1.409,3.402s-0.501,2.495-1.41,3.404C401.709,288.541,400.5,289.041,399.215,289.041z M354.315,236.517c-0.751,0-1.457,0.292-1.986,0.823c-0.533,0.532-0.826,1.238-0.826,1.99s0.293,1.457,0.824,1.988l44.899,44.9c1.063,1.063,2.914,1.063,3.977,0.001c0.531-0.531,0.824-1.237,0.824-1.989s-0.292-1.458-0.823-1.987l-44.9-44.9C355.772,236.809,355.066,236.517,354.315,236.517z"/><path d="M410.685,300.483h-15.287c-2.653,0-4.813-2.159-4.813-4.813s2.159-4.813,4.813-4.813h10.475v-10.475c0-2.653,2.159-4.813,4.813-4.813s4.813,2.159,4.813,4.813v15.287C415.497,298.324,413.338,300.483,410.685,300.483z M395.397,292.858c-1.551,0-2.813,1.262-2.813,2.813s1.262,2.813,2.813,2.813h15.287c1.551,0,2.813-1.262,2.813-2.813v-15.287c0-1.551-1.262-2.813-2.813-2.813s-2.813,1.262-2.813,2.813v11.475c0,0.553-0.447,1-1,1H395.397z"/><path fill="#fff" d="M395.397,298.483h15.287c1.53,0,2.774-1.23,2.807-2.753c-0.698,0.765-1.692,1.253-2.806,1.253h-15.288c-1.12,0-2.114-0.495-2.808-1.268C392.614,297.245,393.862,298.483,395.397,298.483z"/><path fill="#41d88d" d="M28.213,122.304c-1.063-1.062-2.915-1.062-3.976,0l-10.811,10.81c-0.531,0.532-0.824,1.238-0.824,1.989s0.293,1.457,0.824,1.989c1.062,1.062,2.913,1.063,3.977,0l8.114-8.114c0.195-0.195,0.451-0.293,0.707-0.293s0.512,0.098,0.707,0.293l8.115,8.114c1.062,1.062,2.914,1.063,3.978-0.001c1.095-1.096,1.095-2.88-0.001-3.977L28.213,122.304z"/><path fill="#41d88d" d="M26.244,136.397c-1.551,0-2.813,1.262-2.813,2.813v40.572c0,1.551,1.262,2.812,2.813,2.812s2.812-1.261,2.812-2.812V139.21C29.056,137.659,27.795,136.397,26.244,136.397z"/><path d="M26.244,184.594c-2.654,0-4.813-2.159-4.813-4.812V139.21c0-2.654,2.159-4.813,4.813-4.813c2.653,0,4.812,2.159,4.812,4.813v40.572C31.056,182.436,28.897,184.594,26.244,184.594z M26.244,136.397c-1.551,0-2.813,1.262-2.813,2.813v40.572c0,1.551,1.262,2.812,2.813,2.812s2.812-1.261,2.812-2.812V139.21C29.056,137.659,27.795,136.397,26.244,136.397z"/><path fill="#fff" d="M39.024,137.091c1.095-1.096,1.095-2.88-0.001-3.977l-10.81-10.811c-1.063-1.062-2.915-1.062-3.976,0l-0.281,0.281c0.061-0.003,0.12-0.018,0.182-0.018c1.018,0,1.975,0.396,2.695,1.116l10.811,10.811c0.775,0.775,1.136,1.804,1.102,2.821C38.84,137.244,38.938,137.177,39.024,137.091z"/><path d="M37.035,139.916c-1.286,0-2.494-0.5-3.403-1.41l-7.407-7.407l-7.407,7.407c-0.91,0.909-2.118,1.41-3.403,1.41c-1.286,0-2.494-0.5-3.403-1.41s-1.41-2.118-1.41-3.403s0.501-2.494,1.41-3.403l10.81-10.81c0.908-0.909,2.117-1.41,3.402-1.41c1.285,0,2.493,0.5,3.402,1.409l10.811,10.811c1.875,1.876,1.875,4.929,0.001,6.805C39.528,139.416,38.319,139.916,37.035,139.916z M26.225,128.685c0.256,0,0.512,0.098,0.707,0.293l8.115,8.114c1.062,1.062,2.914,1.063,3.978-0.001c1.095-1.096,1.095-2.88-0.001-3.977l-10.81-10.811c-1.063-1.062-2.915-1.062-3.976,0l-10.811,10.81c-0.531,0.532-0.824,1.238-0.824,1.989s0.293,1.457,0.824,1.989c1.062,1.062,2.913,1.063,3.977,0l8.114-8.114C25.713,128.783,25.969,128.685,26.225,128.685z"/><path fill="#41d88d" d="M48.797,122.406c-1.551,0-2.813,1.261-2.813,2.812v40.572c0,1.551,1.262,2.813,2.813,2.813s2.812-1.262,2.812-2.813v-40.572C51.609,123.667,50.348,122.406,48.797,122.406z"/><path d="M48.797,170.603c-2.654,0-4.813-2.159-4.813-4.813v-40.572c0-2.653,2.159-4.812,4.813-4.812c2.653,0,4.812,2.159,4.812,4.812v40.572C53.609,168.444,51.45,170.603,48.797,170.603z M48.797,122.406c-1.551,0-2.813,1.261-2.813,2.812v40.572c0,1.551,1.262,2.813,2.813,2.813s2.812-1.262,2.812-2.813v-40.572C51.609,123.667,50.348,122.406,48.797,122.406z"/><path fill="#41d88d" d="M57.6,167.908l-8.115,8.114c-0.391,0.391-1.023,0.391-1.414,0l-8.114-8.114c-0.532-0.531-1.238-0.824-1.989-0.824c-0.751,0-1.457,0.292-1.988,0.824c-0.532,0.532-0.825,1.238-0.825,1.989s0.293,1.457,0.824,1.989l10.81,10.81c1.062,1.062,2.914,1.063,3.977,0l10.811-10.81c1.096-1.097,1.096-2.881,0-3.977C60.513,166.846,58.661,166.845,57.6,167.908z"/><path d="M48.777,185.519c-1.286,0-2.494-0.5-3.403-1.41l-10.81-10.81c-0.909-0.909-1.41-2.118-1.41-3.403s0.501-2.494,1.41-3.403c0.908-0.909,2.117-1.41,3.402-1.41c1.285,0,2.493,0.5,3.403,1.409l7.407,7.408l7.408-7.407c0.908-0.909,2.117-1.41,3.402-1.41c1.285,0,2.493,0.5,3.403,1.41c1.875,1.876,1.875,4.929,0,6.806L52.18,184.11C51.271,185.019,50.062,185.519,48.777,185.519z M37.967,167.084c-0.751,0-1.457,0.292-1.988,0.824c-0.532,0.532-0.825,1.238-0.825,1.989s0.293,1.457,0.824,1.989l10.81,10.81c1.062,1.062,2.914,1.063,3.977,0l10.811-10.81c1.096-1.097,1.096-2.881,0-3.977c-1.063-1.063-2.915-1.063-3.977,0l-8.115,8.114c-0.391,0.391-1.023,0.391-1.414,0l-8.114-8.114C39.424,167.376,38.718,167.084,37.967,167.084z"/><g><path fill="#f2bf1c" d="M171.886,176.573l10.81-10.81c0.531-0.531,0.824-1.237,0.824-1.988c0-0.751-0.292-1.457-0.823-1.988l-10.811-10.811c-0.549-0.548-1.269-0.822-1.989-0.822s-1.44,0.274-1.988,0.822c-0.531,0.531-0.824,1.238-0.824,1.989c0,0.751,0.293,1.457,0.824,1.988l8.114,8.115c0.391,0.391,0.391,1.023,0,1.414l-8.114,8.114c-0.531,0.532-0.824,1.238-0.824,1.989c0,0.751,0.293,1.457,0.824,1.988C168.971,177.638,170.821,177.637,171.886,176.573z"/><path fill="#f2bf1c" d="M165.79,160.944h-40.572c-1.551,0-2.812,1.261-2.812,2.812s1.261,2.813,2.812,2.813h40.572c1.551,0,2.813-1.262,2.813-2.813S167.341,160.944,165.79,160.944z"/><path d="M165.79,168.568h-40.572c-2.653,0-4.812-2.159-4.812-4.813c0-2.653,2.159-4.812,4.812-4.812h40.572c2.653,0,4.813,2.159,4.813,4.812C170.603,166.41,168.443,168.568,165.79,168.568z M125.218,160.944c-1.551,0-2.812,1.261-2.812,2.812s1.261,2.813,2.812,2.813h40.572c1.551,0,2.813-1.262,2.813-2.813s-1.262-2.812-2.813-2.812H125.218z"/><path fill="#fff" d="M171.886,176.573l10.81-10.81c0.531-0.531,0.824-1.237,0.824-1.988c0-0.751-0.292-1.457-0.823-1.988l-0.158-0.158c0.003,0.062,0.018,0.121,0.018,0.183c0,1.018-0.396,1.976-1.117,2.695l-10.81,10.81c-0.72,0.72-1.677,1.117-2.696,1.117c-0.052,0-0.101-0.014-0.153-0.016c0.044,0.051,0.079,0.107,0.127,0.154C168.971,177.638,170.821,177.637,171.886,176.573z"/><path d="M169.896,179.398c-1.285,0-2.494-0.501-3.402-1.41c-0.909-0.908-1.41-2.116-1.41-3.402c0-1.285,0.501-2.494,1.41-3.403l7.407-7.407l-7.407-7.408c-0.909-0.908-1.41-2.116-1.41-3.402c0-1.285,0.501-2.493,1.41-3.403c1.875-1.874,4.929-1.875,6.806,0l10.811,10.811c0.909,0.909,1.409,2.118,1.409,3.402c0,1.286-0.501,2.495-1.41,3.403l-10.81,10.81C172.39,178.897,171.182,179.398,169.896,179.398z M169.896,150.155c-0.721,0-1.44,0.274-1.988,0.822c-0.531,0.531-0.824,1.238-0.824,1.989c0,0.751,0.293,1.457,0.824,1.988l8.114,8.115c0.391,0.391,0.391,1.023,0,1.414l-8.114,8.114c-0.531,0.532-0.824,1.238-0.824,1.989c0,0.751,0.293,1.457,0.824,1.988c1.063,1.064,2.913,1.063,3.978,0l10.81-10.81c0.531-0.531,0.824-1.237,0.824-1.988c0-0.751-0.292-1.457-0.823-1.988l-10.811-10.811C171.337,150.429,170.617,150.155,169.896,150.155z"/><path fill="#f28c1c" d="M179.782,138.391H139.21c-1.551,0-2.813,1.261-2.813,2.812s1.262,2.813,2.813,2.813h40.572c1.55,0,2.812-1.262,2.812-2.813S181.332,138.391,179.782,138.391z"/><path d="M179.782,146.016H139.21c-2.654,0-4.813-2.159-4.813-4.813c0-2.653,2.159-4.812,4.813-4.812h40.572c2.653,0,4.812,2.159,4.812,4.812C184.594,143.857,182.436,146.016,179.782,146.016z M139.21,138.391c-1.551,0-2.813,1.261-2.813,2.812s1.262,2.813,2.813,2.813h40.572c1.55,0,2.812-1.262,2.812-2.813s-1.262-2.812-2.812-2.812H139.21z"/><path fill="#f28c1c" d="M137.091,128.423c-0.547-0.547-1.268-0.821-1.987-0.821c-0.721,0-1.441,0.274-1.989,0.822l-10.811,10.81c-0.531,0.531-0.823,1.237-0.823,1.988c0,0.751,0.292,1.457,0.824,1.988l10.81,10.811c1.063,1.063,2.914,1.063,3.978,0c0.531-0.531,0.824-1.237,0.824-1.988c0-0.751-0.292-1.457-0.824-1.989l-8.114-8.114c-0.391-0.391-0.391-1.023,0-1.414l8.114-8.115c0.531-0.531,0.824-1.237,0.824-1.988C137.916,129.662,137.623,128.955,137.091,128.423z"/><path d="M135.104,156.845c-1.285,0-2.494-0.501-3.403-1.41l-10.81-10.81c-0.909-0.908-1.41-2.117-1.41-3.402c0-1.285,0.5-2.493,1.409-3.402l10.811-10.811c1.877-1.875,4.929-1.875,6.805-0.001c0.91,0.911,1.41,2.119,1.41,3.404c0,1.286-0.5,2.494-1.41,3.403l-7.407,7.407l7.407,7.407c0.909,0.91,1.41,2.118,1.41,3.403c0,1.286-0.5,2.494-1.41,3.403S136.389,156.845,135.104,156.845z M135.104,127.602c-0.721,0-1.441,0.274-1.989,0.822l-10.811,10.81c-0.531,0.531-0.823,1.237-0.823,1.988c0,0.751,0.292,1.457,0.824,1.988l10.81,10.811c1.063,1.063,2.914,1.063,3.978,0c0.531-0.531,0.824-1.237,0.824-1.988c0-0.751-0.292-1.457-0.824-1.989l-8.114-8.114c-0.391-0.391-0.391-1.023,0-1.414l8.114-8.115c0.531-0.531,0.824-1.237,0.824-1.988c0-0.751-0.293-1.458-0.825-1.989C136.544,127.876,135.824,127.602,135.104,127.602z"/></g><g><path fill="#37c3f4" d="M-65.492,132.464l-10.168-10.168c-0.976-0.976-2.681-0.975-3.655,0l-10.168,10.168c-0.489,0.489-0.758,1.138-0.758,1.829s0.269,1.34,0.758,1.829c0.977,0.977,2.679,0.977,3.657,0l7.632-7.631c0.195-0.195,0.451-0.293,0.707-0.293s0.512,0.098,0.707,0.293l7.632,7.632c0.976,0.977,2.678,0.978,3.658-0.001C-64.484,135.112-64.484,133.472-65.492,132.464z"/><path fill="#37c3f4" d="M-60.691,152.519c0-1.426-1.16-2.586-2.586-2.586h-10.618c-0.265,0-0.52-0.105-0.707-0.293s-0.312-0.461-0.312-0.726v-10.618c0-1.426-1.16-2.586-2.586-2.586s-2.586,1.16-2.586,2.586v10.618c0,0.265-0.105,0.52-0.293,0.707s-0.461,0.312-0.726,0.312h-10.618c-1.426,0-2.586,1.16-2.586,2.586s1.16,2.586,2.586,2.586h10.618c0.27,0,0.528,0.109,0.716,0.302c0.182,0.187,0.303,0.457,0.303,0.718v10.618c0,1.426,1.16,2.586,2.586,2.586s2.586-1.16,2.586-2.586v-10.618c0-0.261,0.102-0.511,0.284-0.698l0.019-0.02c0.188-0.193,0.446-0.302,0.716-0.302h10.618C-61.851,155.105-60.691,153.945-60.691,152.519z"/><path d="M-77.5,171.328c-2.529,0-4.586-2.057-4.586-4.586v-9.637h-9.637c-2.529,0-4.586-2.057-4.586-4.586s2.057-4.586,4.586-4.586h9.637v-9.637c0-2.529,2.057-4.586,4.586-4.586s4.586,2.057,4.586,4.586v9.637h9.637c2.529,0,4.586,2.057,4.586,4.586s-2.057,4.586-4.586,4.586h-9.637v9.637C-72.914,169.271-74.971,171.328-77.5,171.328z M-91.723,149.933c-1.426,0-2.586,1.16-2.586,2.586s1.16,2.586,2.586,2.586h10.618c0.27,0,0.528,0.109,0.716,0.302c0.182,0.187,0.303,0.457,0.303,0.718v10.618c0,1.426,1.16,2.586,2.586,2.586s2.586-1.16,2.586-2.586v-10.618c0-0.261,0.102-0.511,0.284-0.698l0.019-0.02c0.188-0.193,0.446-0.302,0.716-0.302h10.618c1.426,0,2.586-1.16,2.586-2.586s-1.16-2.586-2.586-2.586h-10.618c-0.265,0-0.52-0.105-0.707-0.293s-0.312-0.461-0.312-0.726v-10.618c0-1.426-1.16-2.586-2.586-2.586s-2.586,1.16-2.586,2.586v10.618c0,0.265-0.105,0.52-0.293,0.707s-0.461,0.312-0.726,0.312H-91.723z"/><path fill="#37c3f4" d="M-93.85,160.875l-7.631-7.632c-0.391-0.391-0.391-1.023,0-1.414l7.631-7.632c0.489-0.489,0.758-1.138,0.758-1.829s-0.269-1.34-0.758-1.829c-0.488-0.488-1.137-0.757-1.828-0.757c-0.69,0-1.34,0.269-1.829,0.758l-10.168,10.167c-1.007,1.008-1.007,2.648,0,3.656l10.167,10.168c0.979,0.978,2.681,0.975,3.656,0.001c0.49-0.489,0.759-1.139,0.759-1.829S-93.361,161.364-93.85,160.875z"/><path d="M-95.678,167.29c-1.224,0-2.375-0.477-3.243-1.343l-10.167-10.168c-1.788-1.788-1.788-4.696,0-6.484l10.168-10.168c0.867-0.866,2.019-1.343,3.243-1.343c1.225,0,2.377,0.477,3.243,1.343c0.866,0.866,1.343,2.018,1.343,3.243c0,1.225-0.478,2.376-1.344,3.243l-6.924,6.924l6.924,6.925c0.867,0.866,1.344,2.018,1.344,3.243c0,1.225-0.478,2.376-1.344,3.243C-93.301,166.813-94.452,167.29-95.678,167.29z M-95.678,139.783c-0.69,0-1.34,0.269-1.829,0.758l-10.168,10.167c-1.007,1.008-1.007,2.648,0,3.656l10.167,10.168c0.979,0.978,2.681,0.975,3.656,0.001c0.49-0.489,0.759-1.139,0.759-1.829s-0.269-1.34-0.758-1.829l-7.631-7.632c-0.391-0.391-0.391-1.023,0-1.414l7.631-7.632c0.489-0.489,0.758-1.138,0.758-1.829s-0.269-1.34-0.758-1.829C-94.338,140.052-94.987,139.783-95.678,139.783z"/><path fill="#37c3f4" d="M-47.326,154.364c1.008-1.008,1.008-2.648,0-3.657l-10.168-10.168c-0.488-0.488-1.138-0.757-1.828-0.757c-0.691,0-1.34,0.269-1.828,0.757c-0.489,0.489-0.758,1.138-0.758,1.829s0.269,1.339,0.758,1.828l7.631,7.633c0.391,0.391,0.391,1.023,0,1.414l-7.631,7.632c-0.489,0.489-0.758,1.138-0.758,1.829s0.269,1.339,0.757,1.827c0.978,0.979,2.679,0.98,3.657,0L-47.326,154.364z"/><path d="M-59.322,167.29c-1.226,0-2.377-0.478-3.243-1.345c-0.866-0.865-1.343-2.016-1.343-3.241c0-1.225,0.477-2.376,1.344-3.243l6.924-6.925l-6.924-6.925c-0.867-0.866-1.344-2.017-1.344-3.242c0-1.225,0.477-2.376,1.344-3.243c0.865-0.866,2.017-1.343,3.242-1.343c1.224,0,2.375,0.477,3.242,1.342l10.168,10.168c1.788,1.788,1.788,4.697,0,6.485l-10.167,10.168C-56.947,166.813-58.098,167.29-59.322,167.29z M-59.322,139.783c-0.691,0-1.34,0.269-1.828,0.757c-0.489,0.489-0.758,1.138-0.758,1.829s0.269,1.339,0.758,1.828l7.631,7.633c0.391,0.391,0.391,1.023,0,1.414l-7.631,7.632c-0.489,0.489-0.758,1.138-0.758,1.829s0.269,1.339,0.757,1.827c0.978,0.979,2.679,0.98,3.657,0l10.167-10.167c1.008-1.008,1.008-2.648,0-3.657l-10.168-10.168C-57.982,140.052-58.632,139.783-59.322,139.783z"/><path fill="#37c3f4" d="M-65.492,172.536c1.008-1.008,1.008-2.648,0-3.657c-0.979-0.977-2.682-0.976-3.656,0l-7.633,7.632c-0.391,0.391-1.023,0.391-1.414,0l-7.633-7.632c-0.488-0.488-1.138-0.757-1.828-0.757s-1.34,0.269-1.828,0.757c-0.489,0.489-0.758,1.138-0.758,1.829s0.269,1.339,0.758,1.828l10.168,10.168c0.975,0.976,2.68,0.977,3.656,0L-65.492,172.536z"/><path d="M-77.488,185.461c-1.226,0-2.377-0.477-3.243-1.344l-10.167-10.167c-0.867-0.866-1.344-2.017-1.344-3.242c0-1.225,0.477-2.376,1.344-3.243c0.866-0.866,2.018-1.343,3.242-1.343c1.224,0,2.375,0.477,3.242,1.342l6.926,6.926l6.925-6.925c0.865-0.866,2.017-1.343,3.242-1.343c1.224,0,2.375,0.477,3.242,1.342c1.789,1.789,1.789,4.698,0.001,6.486l-10.168,10.168C-75.112,184.984-76.263,185.461-77.488,185.461z M-87.656,168.122c-0.69,0-1.34,0.269-1.828,0.757c-0.489,0.489-0.758,1.138-0.758,1.829s0.269,1.339,0.758,1.828l10.168,10.168c0.975,0.976,2.68,0.977,3.656,0l10.168-10.168c1.008-1.008,1.008-2.648,0-3.657c-0.979-0.977-2.682-0.976-3.656,0l-7.633,7.632c-0.391,0.391-1.023,0.391-1.414,0l-7.633-7.632C-86.316,168.391-86.965,168.122-87.656,168.122z"/><path fill="#fff" d="M-65.491,136.12c1.007-1.007,1.007-2.648-0.001-3.656l-10.168-10.168c-0.976-0.976-2.681-0.975-3.655,0l-0.161,0.161c0.047-0.002,0.091-0.014,0.139-0.014c0.958,0,1.858,0.373,2.535,1.05l10.168,10.169c0.701,0.701,1.042,1.622,1.039,2.543C-65.562,136.174-65.523,136.152-65.491,136.12z"/><path d="M-67.32,138.878c-1.225,0-2.377-0.477-3.243-1.343l-6.925-6.925l-6.925,6.925c-0.867,0.866-2.019,1.343-3.243,1.343c-1.225,0-2.376-0.477-3.242-1.343c-0.867-0.866-1.344-2.018-1.344-3.243c0-1.225,0.478-2.376,1.344-3.243l10.167-10.167c0.865-0.866,2.016-1.343,3.242-1.343c1.225,0,2.376,0.477,3.242,1.343l10.168,10.168c1.788,1.788,1.788,4.696,0,6.484C-64.945,138.401-66.097,138.878-67.32,138.878z M-77.488,128.196c0.256,0,0.512,0.098,0.707,0.293l7.632,7.632c0.976,0.977,2.678,0.978,3.658-0.001c1.007-1.007,1.007-2.648-0.001-3.656l-10.168-10.168c-0.976-0.976-2.681-0.975-3.655,0l-10.168,10.168c-0.489,0.489-0.758,1.138-0.758,1.829s0.269,1.34,0.758,1.829c0.977,0.977,2.679,0.977,3.657,0l7.632-7.631C-78,128.293-77.744,128.196-77.488,128.196z"/></g><g><path fill="#f28c1c" d="M31.337,473.099c-1.551,0-2.813,1.262-2.813,2.813v11.476c0,0.553-0.448,1-1,1H16.049c-1.551,0-2.813,1.262-2.813,2.813s1.262,2.813,2.813,2.813h15.288c1.551,0,2.813-1.262,2.813-2.813v-15.288C34.149,474.36,32.888,473.099,31.337,473.099z"/><path fill="#f2bf1c" d="M43.663,473.099c-1.551,0-2.813,1.262-2.813,2.813v15.288c0,1.551,1.262,2.813,2.813,2.813h15.288c1.551,0,2.813-1.262,2.813-2.813s-1.262-2.813-2.813-2.813H47.476c-0.552,0-1-0.447-1-1v-11.476C46.476,474.36,45.214,473.099,43.663,473.099z"/><path fill="#f28c1c" d="M56.002,511.941c-1.056-1.055-2.897-1.063-3.961-0.014c-0.494,0.486-0.768,1.169-0.771,1.922c-0.003,0.832,0.322,1.637,0.893,2.207l11.591,11.592c0.335,0.336,0.674,0.563,1.009,0.678c1.147,0.393,2.341,0.091,3.115-0.784c0.915-1.034,0.785-2.939-0.273-3.997L56.002,511.941z"/><path d="M65.776,530.499c-0.548,0-1.107-0.092-1.659-0.28c0,0,0,0-0.001,0c-0.626-0.215-1.224-0.604-1.776-1.157l-11.59-11.591c-0.945-0.944-1.484-2.267-1.479-3.629c0.005-1.29,0.49-2.476,1.367-3.34c0.906-0.892,2.105-1.383,3.377-1.383c1.285,0,2.493,0.5,3.401,1.407l11.604,11.604c1.816,1.816,1.98,4.901,0.357,6.735C68.437,529.931,67.141,530.499,65.776,530.499z M64.764,528.326c1.147,0.393,2.341,0.091,3.115-0.784c0.915-1.034,0.785-2.939-0.273-3.997l-11.604-11.604c-1.056-1.055-2.897-1.063-3.961-0.014c-0.494,0.486-0.768,1.169-0.771,1.922c-0.003,0.832,0.322,1.637,0.893,2.207l11.591,11.592C64.09,527.984,64.429,528.212,64.764,528.326L64.764,528.326z"/><path fill="#f28c1c" d="M59.089,500.851H43.801c-1.551,0-2.813,1.262-2.813,2.813v15.288c0,1.551,1.262,2.813,2.813,2.813s2.813-1.262,2.813-2.813v-11.476c0-0.553,0.448-1,1-1h11.475c1.551,0,2.813-1.262,2.813-2.813S60.64,500.851,59.089,500.851z"/><path d="M43.801,523.764c-2.654,0-4.813-2.159-4.813-4.813v-15.288c0-2.653,2.159-4.813,4.813-4.813h15.288c2.654,0,4.813,2.159,4.813,4.813s-2.159,4.813-4.813,4.813H48.614v10.476C48.614,521.604,46.455,523.764,43.801,523.764z M43.801,500.851c-1.551,0-2.813,1.262-2.813,2.813v15.288c0,1.551,1.262,2.813,2.813,2.813s2.813-1.262,2.813-2.813v-11.476c0-0.553,0.448-1,1-1h11.475c1.551,0,2.813-1.262,2.813-2.813s-1.262-2.813-2.813-2.813H43.801z"/><path fill="#f28c1c" d="M11.455,467.394c-1.077-1.075-2.944-1.202-3.998-0.272c-0.875,0.773-1.175,1.968-0.784,3.116c0.114,0.333,0.342,0.672,0.677,1.008l11.592,11.592c0.571,0.57,1.388,0.856,2.209,0.893c0.752-0.003,1.435-0.277,1.921-0.771c0.521-0.529,0.808-1.23,0.808-1.974c0-0.75-0.292-1.456-0.823-1.987L11.455,467.394z"/><path d="M21.139,485.729c-1.355,0-2.669-0.538-3.61-1.479L5.937,472.659c-0.554-0.554-0.942-1.15-1.156-1.775c0,0,0,0,0-0.001c-0.657-1.927-0.139-3.942,1.352-5.26c1.836-1.622,4.919-1.459,6.736,0.356l11.604,11.604c0.908,0.909,1.408,2.117,1.408,3.401c0,1.271-0.491,2.471-1.383,3.377c-0.863,0.876-2.048,1.361-3.338,1.367C21.153,485.729,21.146,485.729,21.139,485.729z M6.674,470.237c0.114,0.333,0.342,0.672,0.677,1.008l11.592,11.592c0.571,0.57,1.388,0.856,2.209,0.893c0.752-0.003,1.435-0.277,1.921-0.771c0.521-0.529,0.808-1.23,0.808-1.974c0-0.75-0.292-1.456-0.823-1.987l-11.603-11.604c-1.077-1.075-2.944-1.202-3.998-0.272C6.583,467.895,6.283,469.089,6.674,470.237L6.674,470.237z"/><path fill="#fff" d="M16.049,494.012h15.288c1.549,0,2.809-1.259,2.812-2.807c-0.698,0.768-1.695,1.26-2.812,1.26H16.049c-1.122,0-2.118-0.497-2.812-1.273c0,0.003-0.001,0.005-0.001,0.007C13.236,492.75,14.498,494.012,16.049,494.012z"/><path d="M31.337,496.012H16.049c-2.654,0-4.813-2.159-4.813-4.813s2.159-4.813,4.813-4.813h10.476v-10.476c0-2.653,2.159-4.813,4.813-4.813s4.813,2.159,4.813,4.813v15.288C36.149,493.853,33.991,496.012,31.337,496.012z M16.049,488.387c-1.551,0-2.813,1.262-2.813,2.813s1.262,2.813,2.813,2.813h15.288c1.551,0,2.813-1.262,2.813-2.813v-15.288c0-1.551-1.262-2.813-2.813-2.813s-2.813,1.262-2.813,2.813v11.476c0,0.553-0.448,1-1,1H16.049z"/><path fill="#f2bf1c" d="M20.985,511.119c-0.751,0-1.457,0.292-1.988,0.823L7.394,523.545c-1.058,1.058-1.188,2.963-0.273,3.997c0.775,0.875,1.968,1.176,3.115,0.784c0.335-0.114,0.674-0.342,1.008-0.677l11.592-11.593c0.571-0.57,0.896-1.375,0.893-2.207c-0.003-0.753-0.276-1.436-0.771-1.922C22.43,511.406,21.729,511.119,20.985,511.119z"/><path d="M9.224,530.499c-1.365,0-2.66-0.568-3.601-1.633c-1.623-1.834-1.459-4.919,0.357-6.735l11.604-11.604c0.909-0.908,2.117-1.408,3.402-1.408c1.271,0,2.471,0.491,3.377,1.383c0.877,0.864,1.362,2.05,1.367,3.34c0.005,1.362-0.534,2.685-1.479,3.629l-11.591,11.592c-0.551,0.553-1.149,0.941-1.775,1.156c0,0-0.001,0-0.001,0C10.331,530.407,9.771,530.499,9.224,530.499z M20.985,511.119c-0.751,0-1.457,0.292-1.988,0.823L7.394,523.545c-1.058,1.058-1.188,2.963-0.273,3.997c0.775,0.875,1.968,1.176,3.115,0.784l0,0c0.335-0.114,0.674-0.342,1.008-0.677l11.592-11.593c0.571-0.57,0.896-1.375,0.893-2.207c-0.003-0.753-0.276-1.436-0.771-1.922C22.43,511.406,21.729,511.119,20.985,511.119z"/><path fill="#f2bf1c" d="M34.011,503.663c0-1.551-1.262-2.813-2.813-2.813H15.911c-1.551,0-2.813,1.262-2.813,2.813s1.262,2.813,2.813,2.813h11.475c0.552,0,1,0.447,1,1v11.476c0,1.551,1.262,2.813,2.813,2.813s2.813-1.262,2.813-2.813V503.663z"/><path d="M31.199,523.764c-2.654,0-4.813-2.159-4.813-4.813v-10.476H15.911c-2.654,0-4.813-2.159-4.813-4.813s2.159-4.813,4.813-4.813h15.288c2.654,0,4.813,2.159,4.813,4.813v15.288C36.011,521.604,33.853,523.764,31.199,523.764z M15.911,500.851c-1.551,0-2.813,1.262-2.813,2.813s1.262,2.813,2.813,2.813h11.475c0.552,0,1,0.447,1,1v11.476c0,1.551,1.262,2.813,2.813,2.813s2.813-1.262,2.813-2.813v-15.288c0-1.551-1.262-2.813-2.813-2.813H15.911z"/><path fill="#f2bf1c" d="M65.771,466.498c-0.803,0-1.634,0.305-2.226,0.896l-11.604,11.604c-0.53,0.531-0.822,1.237-0.822,1.987c0,0.743,0.287,1.444,0.808,1.973c0.486,0.494,1.168,0.769,1.921,0.771c0.814-0.022,1.638-0.322,2.209-0.893l11.592-11.592c0.335-0.336,0.563-0.675,0.677-1.008c0.391-1.148,0.091-2.343-0.784-3.116C67.068,466.702,66.429,466.498,65.771,466.498z"/><path d="M53.861,485.729c-0.007,0-0.014,0-0.021,0c-1.29-0.006-2.475-0.491-3.338-1.368c-0.892-0.905-1.383-2.104-1.383-3.376c0-1.284,0.5-2.492,1.408-3.401l11.604-11.604c1.816-1.816,4.901-1.979,6.736-0.356c1.491,1.317,2.009,3.333,1.352,5.26c0,0.001,0,0.001,0,0.001c-0.213,0.625-0.602,1.222-1.156,1.775l-11.592,11.592C56.53,485.191,55.216,485.729,53.861,485.729z M65.771,466.498c-0.803,0-1.634,0.305-2.226,0.896l-11.604,11.604c-0.53,0.531-0.822,1.237-0.822,1.987c0,0.743,0.287,1.444,0.808,1.973c0.486,0.494,1.168,0.769,1.921,0.771c0.814-0.022,1.638-0.322,2.209-0.893l11.592-11.592c0.335-0.336,0.563-0.675,0.677-1.008c0.391-1.148,0.091-2.343-0.784-3.116C67.068,466.702,66.429,466.498,65.771,466.498z"/><path fill="#fff" d="M43.663,494.012h15.288c1.551,0,2.813-1.262,2.813-2.813c0-0.088-0.018-0.17-0.026-0.256c-0.695,0.754-1.682,1.235-2.787,1.235H43.663c-1.118,0-2.115-0.492-2.812-1.261v0.282C40.851,492.75,42.112,494.012,43.663,494.012z"/><path d="M58.951,496.012H43.663c-2.654,0-4.813-2.159-4.813-4.813v-15.288c0-2.653,2.159-4.813,4.813-4.813s4.813,2.159,4.813,4.813v10.476h10.476c2.654,0,4.813,2.159,4.813,4.813S61.605,496.012,58.951,496.012z M43.663,473.099c-1.551,0-2.813,1.262-2.813,2.813v15.288c0,1.551,1.262,2.813,2.813,2.813h15.288c1.551,0,2.813-1.262,2.813-2.813s-1.262-2.813-2.813-2.813H47.476c-0.552,0-1-0.447-1-1v-11.476C46.476,474.36,45.214,473.099,43.663,473.099z"/></g><g><path fill="#ef3039" d="M387.621,474.141c-1.551,0-2.813,1.262-2.813,2.813v15.288c0,1.551,1.262,2.813,2.813,2.813h15.288c1.551,0,2.813-1.262,2.813-2.813s-1.262-2.813-2.813-2.813h-11.476c-0.553,0-1-0.447-1-1v-11.476C390.434,475.402,389.172,474.141,387.621,474.141z"/><path fill="#cc060e" d="M377.241,520.722c1.551,0,2.813-1.262,2.813-2.813v-15.288c0-1.551-1.262-2.813-2.813-2.813h-15.288c-1.551,0-2.813,1.262-2.813,2.813s1.262,2.813,2.813,2.813h11.476c0.553,0,1,0.447,1,1v11.476C374.429,519.46,375.69,520.722,377.241,520.722z"/><path fill="#cc060e" d="M367.853,516.041c0.57-0.57,0.896-1.375,0.893-2.207c-0.003-0.753-0.276-1.436-0.771-1.923c-0.529-0.521-1.23-0.809-1.973-0.809c-0.751,0-1.457,0.292-1.988,0.823l-11.604,11.604c-1.058,1.058-1.188,2.962-0.272,3.996c0.773,0.877,1.97,1.175,3.115,0.784c0.001,0,0.001,0,0.001,0c0.332-0.113,0.671-0.341,1.007-0.677L367.853,516.041z"/><path d="M354.238,530.482c-1.364,0-2.659-0.568-3.599-1.632c-1.624-1.835-1.461-4.92,0.356-6.735l11.604-11.604c0.909-0.908,2.117-1.408,3.402-1.408c1.271,0,2.471,0.491,3.377,1.384c0.876,0.864,1.361,2.05,1.366,3.34c0.005,1.361-0.533,2.685-1.479,3.629l-11.592,11.592c-0.555,0.555-1.152,0.943-1.776,1.155C355.346,530.391,354.786,530.482,354.238,530.482z M366.002,511.103c-0.751,0-1.457,0.292-1.988,0.823l-11.604,11.604c-1.058,1.058-1.188,2.962-0.272,3.996c0.773,0.877,1.97,1.175,3.115,0.784c0.001,0,0.001,0,0.001,0c0.332-0.113,0.671-0.341,1.007-0.677l11.592-11.592c0.57-0.57,0.896-1.375,0.893-2.207c-0.003-0.753-0.276-1.436-0.771-1.923C367.445,511.39,366.744,511.103,366.002,511.103z"/><path fill="#fff" d="M377.241,499.809h-15.288c-1.551,0-2.813,1.262-2.813,2.813c0,0.007,0.002,0.014,0.002,0.021c0.694-0.775,1.69-1.271,2.811-1.271h15.288c1.118,0,2.115,0.492,2.813,1.261v-0.01C380.054,501.07,378.792,499.809,377.241,499.809z"/><path d="M377.241,522.722c-2.653,0-4.813-2.159-4.813-4.813v-10.476h-10.476c-2.653,0-4.813-2.159-4.813-4.813s2.159-4.813,4.813-4.813h15.288c2.653,0,4.813,2.159,4.813,4.813v15.288C382.054,520.563,379.895,522.722,377.241,522.722z M361.953,499.809c-1.551,0-2.813,1.262-2.813,2.813s1.262,2.813,2.813,2.813h11.476c0.553,0,1,0.447,1,1v11.476c0,1.551,1.262,2.813,2.813,2.813s2.813-1.262,2.813-2.813v-15.288c0-1.551-1.262-2.813-2.813-2.813H361.953z"/><path fill="#ef3039" d="M410.761,466.526c-0.81,0-1.649,0.301-2.231,0.884l-11.604,11.604c-0.53,0.531-0.822,1.237-0.822,1.988c0,0.742,0.287,1.443,0.81,1.973c0.486,0.494,1.169,0.768,1.922,0.771c0.004,0,0.008,0,0.012,0c0.828,0,1.627-0.325,2.195-0.893l11.592-11.592c0.336-0.336,0.563-0.675,0.677-1.007c0,0,0,0,0-0.001c0.392-1.147,0.092-2.342-0.783-3.115C412.062,466.727,411.421,466.526,410.761,466.526z"/><path d="M398.845,485.745c-0.006,0-0.013,0-0.019,0c-1.29-0.005-2.476-0.49-3.339-1.366c-0.894-0.906-1.385-2.105-1.385-3.377c0-1.285,0.5-2.493,1.407-3.402l11.605-11.604c1.815-1.817,4.9-1.981,6.736-0.356c1.49,1.317,2.008,3.332,1.351,5.259l0,0c-0.212,0.624-0.601,1.222-1.155,1.776l-11.592,11.592C401.515,485.207,400.2,485.745,398.845,485.745z M410.761,466.526c-0.81,0-1.649,0.301-2.231,0.884l-11.604,11.604c-0.53,0.531-0.822,1.237-0.822,1.988c0,0.742,0.287,1.443,0.81,1.973c0.486,0.494,1.169,0.768,1.922,0.771c0.004,0,0.008,0,0.012,0c0.828,0,1.627-0.325,2.195-0.893l11.592-11.592c0.336-0.336,0.563-0.675,0.677-1.007c0,0,0,0,0-0.001c0.392-1.147,0.092-2.342-0.783-3.115C412.062,466.727,411.421,466.526,410.761,466.526z"/><path fill="#fff" d="M387.621,495.054h15.288c1.551,0,2.813-1.262,2.813-2.813c0-0.112-0.02-0.219-0.033-0.327c-0.696,0.748-1.68,1.223-2.78,1.223h-15.288c-1.117,0-2.114-0.492-2.812-1.26v0.365C384.809,493.792,386.07,495.054,387.621,495.054z"/><path d="M402.909,497.054h-15.288c-2.653,0-4.813-2.159-4.813-4.813v-15.288c0-2.653,2.159-4.813,4.813-4.813s4.813,2.159,4.813,4.813v10.476h10.476c2.653,0,4.813,2.159,4.813,4.813S405.563,497.054,402.909,497.054z M387.621,474.141c-1.551,0-2.813,1.262-2.813,2.813v15.288c0,1.551,1.262,2.813,2.813,2.813h15.288c1.551,0,2.813-1.262,2.813-2.813s-1.262-2.813-2.813-2.813h-11.476c-0.553,0-1-0.447-1-1v-11.476C390.434,475.402,389.172,474.141,387.621,474.141z"/></g><g><path fill="#f28c1c" d="M57.285,17.425L47.105,7.259c-0.472-0.472-1.099-0.731-1.767-0.731c-0.669,0-1.297,0.261-1.77,0.734c-0.974,0.976-0.973,2.563,0.002,3.537l7.702,7.692c0.391,0.39,0.391,1.023,0.001,1.414l-7.692,7.703c-0.471,0.472-0.729,1.1-0.729,1.769c0.001,0.669,0.261,1.296,0.733,1.767c0.945,0.945,2.593,0.944,3.536-0.001l10.167-10.181C58.262,19.986,58.261,18.4,57.285,17.425z"/><path fill="#fff" d="M57.288,20.962c0.974-0.976,0.973-2.562-0.002-3.537L47.105,7.259c-0.472-0.472-1.099-0.731-1.767-0.731c-0.669,0-1.297,0.261-1.77,0.734c-0.035,0.035-0.059,0.075-0.091,0.112c0.006,0,0.011-0.002,0.017-0.002c0.935,0,1.813,0.363,2.473,1.023l10.18,10.166c0.694,0.693,1.032,1.608,1.021,2.519L57.288,20.962z"/><path d="M49.152,19.2l-6.986,6.996c-0.848,0.85-1.315,1.98-1.314,3.183c0.001,1.204,0.47,2.333,1.319,3.181c0.849,0.849,1.979,1.317,3.18,1.317c1.204,0,2.334-0.469,3.185-1.32l10.167-10.181c1.753-1.755,1.752-4.611-0.004-6.365L48.519,5.845c-0.849-0.849-1.979-1.316-3.181-1.316c-1.204,0-2.334,0.469-3.185,1.321c-1.753,1.756-1.751,4.611,0.004,6.365L49.152,19.2z M43.568,7.262c0.473-0.473,1.101-0.734,1.77-0.734c0.668,0,1.295,0.259,1.767,0.731l10.18,10.166c0.976,0.975,0.977,2.561,0.002,3.537L47.121,31.143c-0.943,0.945-2.591,0.947-3.536,0.001c-0.472-0.471-0.732-1.098-0.733-1.767c0-0.669,0.258-1.297,0.729-1.769l7.692-7.703c0.39-0.391,0.39-1.024-0.001-1.414l-7.702-7.692C42.595,9.825,42.594,8.238,43.568,7.262z"/><path fill="#f28c1c" d="M62.439,48.493c-0.357-0.634-0.968-1.094-1.674-1.263c-1.294-0.309-2.667,0.466-3.08,1.748c-2.752,8.542-10.636,14.281-19.617,14.281c-0.001,0-0.001,0-0.002,0c-2.387,0-4.757-0.417-7.046-1.24c-8.981-3.228-14.626-12.443-13.421-21.914c1.291-10.147,9.949-17.922,20.139-18.087c1.157-0.018,2.167-0.821,2.457-1.954c0.201-0.784,0.032-1.599-0.463-2.238c-0.51-0.657-1.274-1.019-2.153-1.019C25.27,17.025,14.766,26.02,12.619,38.198c-2.254,12.795,5.41,25.315,17.829,29.122c2.497,0.765,5.066,1.152,7.636,1.152h0.002c11.255-0.001,21.127-7.201,24.564-17.917C62.87,49.873,62.793,49.121,62.439,48.493z"/><path d="M64.181,47.511c-0.63-1.117-1.706-1.929-2.953-2.226c-0.348-0.083-0.706-0.125-1.064-0.125c-2.003,0-3.765,1.288-4.383,3.205c-2.485,7.713-9.604,12.895-17.714,12.895c0,0-0.001,0-0.002,0c-2.156,0-4.299-0.377-6.37-1.122c-8.107-2.913-13.201-11.232-12.114-19.78c1.166-9.167,8.985-16.191,18.187-16.339c2.055-0.033,3.849-1.454,4.363-3.457c0.355-1.387,0.057-2.831-0.82-3.961c-0.897-1.156-2.223-1.792-3.751-1.792c-13.28,0.232-24.598,9.923-26.911,23.042C8.22,51.638,16.48,65.129,29.862,69.231c2.688,0.823,5.454,1.24,8.222,1.24h0.002c12.128-0.001,22.765-7.759,26.468-19.305C64.944,49.957,64.808,48.624,64.181,47.511z M62.65,50.555c-3.438,10.716-13.309,17.916-24.564,17.917h-0.002c-2.569,0-5.139-0.388-7.636-1.152c-12.418-3.807-20.083-16.327-17.829-29.122C14.766,26.02,25.27,17.025,37.578,16.809c0.879,0,1.644,0.362,2.153,1.019c0.495,0.639,0.664,1.454,0.463,2.238c-0.29,1.132-1.3,1.936-2.457,1.954c-10.19,0.165-18.848,7.94-20.139,18.087c-1.205,9.47,4.44,18.686,13.421,21.914c2.289,0.823,4.66,1.24,7.046,1.24c0.001,0,0.001,0,0.002,0c8.981,0,16.865-5.739,19.617-14.281c0.413-1.282,1.785-2.057,3.08-1.748c0.707,0.168,1.317,0.629,1.674,1.263C62.793,49.121,62.87,49.873,62.65,50.555z"/></g><g><path fill="#f28c1c" d="M147.148,259.377c0-0.669-0.258-1.297-0.729-1.769l-7.692-7.703c-0.39-0.391-0.39-1.024,0.001-1.414l7.702-7.692c0.975-0.974,0.976-2.561,0.002-3.537c-0.473-0.473-1.101-0.734-1.77-0.734c-0.668,0-1.295,0.259-1.767,0.73l-10.181,10.167c-0.976,0.975-0.977,2.561-0.002,3.537l10.167,10.181c0.944,0.946,2.592,0.946,3.536,0.002C146.887,260.673,147.147,260.046,147.148,259.377z"/><path fill="#fff" d="M144.662,236.528c-0.668,0-1.295,0.259-1.767,0.73l-10.181,10.167c-0.976,0.975-0.977,2.561-0.002,3.537l0.108,0.108c-0.011-0.911,0.327-1.826,1.021-2.519l10.18-10.166c0.66-0.66,1.539-1.023,2.473-1.023c0.007,0,0.013,0.002,0.019,0.002c-0.029-0.033-0.051-0.07-0.083-0.101C145.959,236.789,145.331,236.528,144.662,236.528z"/><path d="M144.648,263.876c-1.204,0-2.334-0.469-3.185-1.32l-10.167-10.181c-1.753-1.755-1.752-4.611,0.004-6.365l10.18-10.166c0.848-0.849,1.978-1.316,3.18-1.316c1.204,0,2.334,0.469,3.185,1.321c1.753,1.756,1.751,4.611-0.004,6.365l-6.995,6.986l6.986,6.996c0.848,0.85,1.315,1.98,1.314,3.183c-0.001,1.204-0.47,2.333-1.32,3.182C146.979,263.408,145.85,263.876,144.648,263.876z M144.662,236.528c-0.668,0-1.295,0.259-1.767,0.73l-10.181,10.167c-0.976,0.975-0.977,2.561-0.002,3.537l10.167,10.181c0.944,0.946,2.592,0.946,3.536,0.002c0.473-0.472,0.732-1.099,0.733-1.768c0-0.669-0.258-1.297-0.729-1.769l-7.692-7.703c-0.39-0.391-0.39-1.024,0.001-1.414l7.702-7.692c0.975-0.974,0.976-2.561,0.002-3.537C145.959,236.789,145.331,236.528,144.662,236.528z"/><path fill="#f28c1c" d="M129.236,277.23c-0.707,0.168-1.317,0.629-1.675,1.263c-0.354,0.628-0.431,1.379-0.212,2.061c3.438,10.717,13.31,17.917,24.565,17.918l0.002,1v-1c2.571,0,5.14-0.388,7.635-1.152c12.419-3.808,20.084-16.327,17.829-29.121c-2.147-12.178-12.65-21.173-24.976-21.389c-0.861,0-1.626,0.362-2.136,1.019c-0.495,0.638-0.664,1.454-0.463,2.237c0.29,1.132,1.3,1.936,2.457,1.954c10.19,0.165,18.849,7.94,20.14,18.087c1.205,9.47-4.439,18.685-13.422,21.913c-2.289,0.823-4.659,1.24-7.046,1.24c-8.983,0-16.868-5.739-19.62-14.282c-0.351-1.088-1.347-1.818-2.479-1.818C129.634,277.159,129.433,277.183,129.236,277.23z"/><path d="M151.917,300.472h-0.002c-12.128-0.001-22.765-7.76-26.469-19.306c-0.39-1.21-0.253-2.542,0.374-3.655c0.63-1.118,1.707-1.929,2.952-2.226c0.348-0.084,0.707-0.126,1.064-0.126c2.003,0,3.765,1.288,4.383,3.205c2.485,7.713,9.604,12.896,17.716,12.896c2.155,0,4.298-0.378,6.369-1.123c8.107-2.913,13.202-11.23,12.114-19.778c-1.166-9.167-8.984-16.191-18.187-16.339c-2.055-0.033-3.849-1.454-4.362-3.457c-0.355-1.387-0.057-2.831,0.82-3.96c0.897-1.156,2.223-1.793,3.733-1.793c13.298,0.232,24.616,9.923,26.927,23.042c2.431,13.787-5.829,27.278-19.212,31.381C157.452,300.055,154.687,300.472,151.917,300.472z M129.835,277.159c-0.201,0-0.403,0.023-0.6,0.071c-0.707,0.168-1.317,0.629-1.675,1.263c-0.354,0.628-0.431,1.379-0.212,2.061c3.438,10.717,13.31,17.917,24.565,17.918l0.002,1v-1c2.571,0,5.14-0.388,7.635-1.152c12.419-3.808,20.084-16.327,17.829-29.121c-2.147-12.178-12.65-21.173-24.976-21.389c-0.861,0-1.626,0.362-2.136,1.019c-0.495,0.638-0.664,1.454-0.463,2.237c0.29,1.132,1.3,1.936,2.457,1.954c10.19,0.165,18.849,7.94,20.14,18.087c1.205,9.47-4.439,18.685-13.422,21.913c-2.289,0.823-4.659,1.24-7.046,1.24c-8.983,0-16.868-5.739-19.62-14.282C131.964,277.89,130.968,277.159,129.835,277.159z"/></g><g><path d="M285.799,60.01c-1.201,0-2.331-0.466-3.18-1.313l-10.177-10.164c-0.851-0.848-1.32-1.979-1.32-3.184c0-1.201,0.468-2.33,1.315-3.18c0.852-0.85,1.982-1.318,3.186-1.318c1.201,0,2.331,0.466,3.179,1.313l6.993,6.983l6.982-6.992c0.849-0.85,1.979-1.318,3.184-1.318c1.201,0,2.331,0.466,3.18,1.313c0.853,0.852,1.321,1.982,1.321,3.185s-0.468,2.332-1.316,3.18l-10.163,10.176C288.136,59.541,287.005,60.01,285.799,60.01z M275.623,42.852c-0.67,0-1.299,0.26-1.771,0.732c-0.471,0.471-0.73,1.099-0.73,1.766c0,0.669,0.261,1.296,0.733,1.768l10.177,10.165c0.943,0.941,2.599,0.938,3.533-0.002l10.165-10.178c0.472-0.471,0.731-1.098,0.731-1.766s-0.261-1.296-0.734-1.769c-0.941-0.939-2.593-0.939-3.534,0.002l-7.689,7.699c-0.391,0.392-1.024,0.391-1.415,0.001l-7.7-7.689C276.919,43.11,276.291,42.852,275.623,42.852z"/><path fill="#f2bf1c" d="M294.193,43.569l-7.689,7.699c-0.391,0.392-1.024,0.391-1.415,0.001l-7.7-7.689c-0.47-0.469-1.098-0.728-1.766-0.728c-0.67,0-1.299,0.26-1.771,0.732c-0.471,0.471-0.73,1.099-0.73,1.766c0,0.669,0.261,1.296,0.733,1.768l10.177,10.165c0.943,0.941,2.599,0.938,3.533-0.002l10.165-10.178c0.472-0.471,0.731-1.098,0.731-1.766s-0.261-1.296-0.734-1.769C296.786,42.627,295.135,42.627,294.193,43.569z"/><path fill="#fff" d="M273.855,47.117l10.177,10.165c0.879,0.878,2.37,0.924,3.326,0.166c-0.933-0.001-1.811-0.363-2.47-1.021l-10.176-10.163c-0.663-0.661-1.027-1.54-1.027-2.475c-0.358,0.442-0.563,0.984-0.563,1.561C273.122,46.018,273.383,46.646,273.855,47.117z"/><path fill="#f2bf1c" d="M266.802,12.628c-1.477-0.261-2.982-0.393-4.474-0.393c-11.219,0-21.351,7.49-24.637,18.215c-0.766,2.496-1.153,5.064-1.153,7.635c0.001,11.251,7.199,21.119,17.911,24.557c0.674,0.216,1.441,0.137,2.063-0.212c0.633-0.357,1.093-0.967,1.262-1.674c0.047-0.196,0.07-0.398,0.07-0.6c0-1.131-0.73-2.127-1.818-2.478c-8.54-2.752-14.277-10.634-14.276-19.613c0-2.387,0.417-4.757,1.238-7.043c2.919-8.122,10.698-13.579,19.357-13.579c0.853,0,1.71,0.054,2.55,0.161c10.146,1.291,17.919,9.946,18.082,20.133c0.019,1.156,0.821,2.166,1.952,2.456c0.787,0.204,1.6,0.032,2.237-0.463c0.656-0.509,1.018-1.273,1.018-2.152C287.97,25.274,278.978,14.774,266.802,12.628z"/><path d="M255.232,64.764c-0.474,0-0.942-0.073-1.394-0.217c-11.544-3.704-19.3-14.338-19.301-26.461c0-2.77,0.418-5.535,1.241-8.221c3.542-11.558,14.459-19.629,26.549-19.629c1.607,0,3.229,0.142,4.821,0.423c13.116,2.312,22.803,13.625,23.034,26.901c0,1.528-0.636,2.854-1.791,3.75c-1.124,0.872-2.578,1.177-3.961,0.82c-2.001-0.512-3.423-2.306-3.455-4.361c-0.147-9.198-7.17-17.014-16.334-18.18c-0.757-0.097-1.53-0.146-2.298-0.146c-7.818,0-14.841,4.925-17.475,12.256c-0.744,2.069-1.121,4.211-1.121,6.367c-0.001,8.108,5.179,15.225,12.89,17.71c1.917,0.618,3.205,2.378,3.205,4.381c0,0.356-0.042,0.713-0.125,1.063c-0.298,1.248-1.109,2.324-2.226,2.954C256.806,64.56,256.023,64.764,255.232,64.764z M262.328,12.236c-11.219,0-21.351,7.49-24.637,18.215c-0.766,2.496-1.153,5.064-1.153,7.635c0.001,11.251,7.199,21.119,17.911,24.557c0.674,0.216,1.441,0.137,2.063-0.212c0.633-0.357,1.093-0.967,1.262-1.674c0.047-0.196,0.07-0.398,0.07-0.6c0-1.131-0.73-2.127-1.818-2.478c-8.54-2.752-14.277-10.634-14.276-19.613c0-2.387,0.417-4.757,1.238-7.043c2.919-8.122,10.698-13.579,19.357-13.579c0.853,0,1.71,0.054,2.55,0.161c10.146,1.291,17.919,9.946,18.082,20.133c0.019,1.156,0.821,2.166,1.952,2.456c0.787,0.204,1.6,0.032,2.237-0.463c0.656-0.509,1.018-1.273,1.018-2.152c-0.214-12.304-9.206-22.804-21.382-24.949C265.325,12.368,263.819,12.236,262.328,12.236z"/></g><g><path fill="#37c3f4" d="M141.474 10.723c0-1.381-1.125-2.504-2.507-2.504l-14.389.009c-.667 0-1.295.263-1.769.737-.474.474-.734 1.103-.733 1.77.001 1.38 1.126 2.503 2.507 2.503l10.882-.007h0c.552 0 1 .447 1 .999l.009 10.882c0 .67.261 1.299.734 1.771.473.473 1.103.733 1.772.733 1.38-.001 2.503-1.126 2.503-2.508L141.474 10.723zM163.516 49.892l.01 14.387c0 1.381 1.123 2.504 2.504 2.504l14.392-.009c.668 0 1.297-.262 1.771-.737.474-.474.734-1.103.733-1.771-.001-1.38-1.126-2.503-2.507-2.503l-10.883.007c-.001 0-.001 0-.001 0-.552 0-1-.447-1-.999l-.009-10.882c0-.67-.261-1.3-.733-1.772-.474-.472-1.104-.732-1.774-.732C164.639 47.385 163.516 48.51 163.516 49.892z"/><path d="M166.033,68.783c-0.001,0-0.004,0-0.004,0c-2.483,0-4.504-2.021-4.504-4.504l-0.01-14.387c0-2.484,2.02-4.506,4.501-4.508c1.204,0,2.336,0.468,3.188,1.316c0.852,0.852,1.32,1.983,1.32,3.187l0.008,9.882l9.884-0.006c2.483,0,4.505,2.019,4.508,4.501c0.001,1.202-0.467,2.333-1.318,3.186c-0.851,0.853-1.981,1.323-3.184,1.324L166.033,68.783z M166.018,47.385c-1.379,0-2.502,1.125-2.502,2.507l0.01,14.387c0,1.381,1.123,2.504,2.504,2.504l14.392-0.009c0.668,0,1.297-0.262,1.771-0.737c0.474-0.474,0.734-1.103,0.733-1.771c-0.001-1.38-1.126-2.503-2.507-2.503l-10.883,0.007c-0.001,0-0.001,0-0.001,0c-0.552,0-1-0.447-1-0.999l-0.009-10.882c0-0.67-0.261-1.3-0.733-1.772C167.318,47.645,166.688,47.385,166.018,47.385z"/><path fill="#37c3f4" d="M178.629,50.974c1.109,0,2.098-0.66,2.517-1.681c1.405-3.429,2.177-7.053,2.294-10.769c0.257-8.159-2.931-16.31-8.745-22.363c-5.889-6.127-13.659-9.544-21.883-9.622c-0.293,0.017-1.017,0.058-1.939,0.125c-0.762,0.056-1.462,0.44-1.921,1.054c-0.459,0.615-0.629,1.396-0.466,2.145c0.264,1.209,1.304,2.086,2.473,2.086h0l0.156-0.004c0.429-0.023,0.888-0.036,1.348-0.036c1.259,0,2.537,0.092,3.798,0.275c11.284,1.629,20.395,11.058,21.661,22.42c0.479,4.308-0.131,8.686-1.766,12.662c-0.411,1-0.187,2.141,0.573,2.908C177.239,50.69,177.915,50.974,178.629,50.974z"/><path d="M178.629,52.974c-1.251,0-2.43-0.494-3.32-1.39c-1.326-1.34-1.72-3.333-1.002-5.077c1.507-3.666,2.069-7.705,1.627-11.68c-1.167-10.472-9.562-19.162-19.959-20.663c-1.592-0.23-3.2-0.303-4.782-0.221l-0.209,0.005c0,0-0.001,0-0.002,0c-2.127,0-3.988-1.539-4.451-3.66c-0.286-1.315,0.012-2.688,0.818-3.768c0.806-1.078,2.036-1.753,3.376-1.852c1.059-0.078,1.86-0.121,2-0.128c8.857,0.075,17.142,3.71,23.41,10.234c6.186,6.439,9.576,15.118,9.302,23.812c-0.123,3.956-0.945,7.813-2.442,11.465C182.268,51.827,180.554,52.974,178.629,52.974z M152.462,11.911c1.259,0,2.537,0.092,3.798,0.275c11.284,1.629,20.395,11.058,21.661,22.42c0.479,4.308-0.131,8.686-1.766,12.662c-0.411,1-0.187,2.141,0.573,2.908c0.51,0.514,1.186,0.798,1.899,0.798c1.109,0,2.098-0.66,2.517-1.681c1.405-3.429,2.177-7.053,2.294-10.769c0.257-8.159-2.931-16.31-8.745-22.363c-5.889-6.127-13.659-9.544-21.883-9.622c-0.293,0.017-1.017,0.058-1.939,0.125c-0.762,0.056-1.462,0.44-1.921,1.054c-0.459,0.615-0.629,1.396-0.466,2.145c0.264,1.209,1.304,2.086,2.473,2.086h0l0.156-0.004C151.543,11.923,152.003,11.911,152.462,11.911z"/><path fill="#fff" d="M138.967 8.219l-14.389.009c-.667 0-1.295.263-1.769.737-.472.472-.731 1.098-.733 1.762.009-.01.015-.021.025-.031.663-.664 1.542-1.03 2.477-1.031l14.389-.009c.983 0 1.869.408 2.506 1.06C141.47 9.338 140.347 8.219 138.967 8.219zM180.413 66.783l-14.389-.009c-.667 0-1.295-.263-1.769-.737-.472-.472-.731-1.098-.733-1.762.009.01.015.021.025.031.663.664 1.542 1.03 2.477 1.031l14.389.009c.983 0 1.869-.408 2.506-1.06C182.915 65.664 181.793 66.783 180.413 66.783z"/><path d="M138.982,29.617L138.982,29.617L138.982,29.617L138.982,29.617L138.982,29.617c-1.205,0-2.336-0.468-3.186-1.318c-0.852-0.849-1.321-1.981-1.321-3.186l-0.008-9.882l-9.883,0.006c-2.483,0-4.505-2.019-4.508-4.501c-0.001-1.202,0.467-2.333,1.318-3.185c0.851-0.853,1.981-1.323,3.183-1.324l14.39-0.009c2.485,0,4.507,2.02,4.507,4.503l0.01,14.387C143.484,27.594,141.464,29.616,138.982,29.617L138.982,29.617z M135.466,13.231c0.552,0,1,0.447,1,0.999l0.009,10.882c0,0.67,0.261,1.299,0.734,1.771c0.473,0.473,1.103,0.733,1.772,0.733c1.38-0.001,2.503-1.126,2.503-2.508l-0.01-14.387c0-1.381-1.125-2.504-2.507-2.504l-14.389,0.009c-0.667,0-1.295,0.263-1.769,0.737c-0.474,0.474-0.734,1.103-0.733,1.77c0.001,1.38,1.126,2.503,2.507,2.503L135.466,13.231L135.466,13.231z"/><path fill="#37c3f4" d="M126.37,24.027c-1.109,0-2.096,0.66-2.515,1.681c-1.406,3.427-2.178,7.05-2.294,10.769c-0.257,8.159,2.93,16.31,8.746,22.363c5.878,6.117,13.655,9.533,21.9,9.62c0.213-0.012,0.958-0.053,1.92-0.123c0.763-0.057,1.463-0.441,1.921-1.054c0.46-0.615,0.63-1.397,0.467-2.146c-0.263-1.209-1.303-2.086-2.473-2.086l-0.156,0.004c-1.607,0.088-3.425,0.01-5.147-0.239c-11.285-1.629-20.394-11.058-21.66-22.42c-0.48-4.31,0.13-8.688,1.765-12.663c0.411-1,0.186-2.141-0.574-2.908C127.76,24.311,127.084,24.027,126.37,24.027z"/><path d="M152.223,70.461c-0.001,0-0.002,0-0.004,0c-8.799-0.084-17.094-3.719-23.355-10.235c-6.186-6.438-9.576-15.117-9.302-23.812c0.125-3.958,0.946-7.816,2.443-11.465c0.728-1.775,2.441-2.922,4.366-2.922c1.251,0,2.431,0.494,3.32,1.39c1.327,1.339,1.721,3.332,1.003,5.077c-1.507,3.665-2.07,7.704-1.627,11.68c1.167,10.472,9.561,19.161,19.958,20.662c1.594,0.23,3.203,0.306,4.784,0.221l0.209-0.005h0.001c2.128,0,3.989,1.539,4.451,3.661c0.286,1.315-0.013,2.688-0.819,3.768c-0.805,1.078-2.035,1.753-3.377,1.852c-0.991,0.073-1.757,0.115-1.964,0.126C152.289,70.459,152.246,70.461,152.223,70.461z M126.37,24.027c-1.109,0-2.096,0.66-2.515,1.681c-1.406,3.427-2.178,7.05-2.294,10.769c-0.257,8.159,2.93,16.31,8.746,22.363c5.878,6.117,13.655,9.533,21.9,9.62c0.213-0.012,0.958-0.053,1.92-0.123c0.763-0.057,1.463-0.441,1.921-1.054c0.46-0.615,0.63-1.397,0.467-2.146c-0.263-1.209-1.303-2.086-2.473-2.086l-0.156,0.004c-1.607,0.088-3.425,0.01-5.147-0.239c-11.285-1.629-20.394-11.058-21.66-22.42c-0.48-4.31,0.13-8.688,1.765-12.663c0.411-1,0.186-2.141-0.574-2.908C127.76,24.311,127.084,24.027,126.37,24.027z"/></g><g><path fill="#37c3f4" d="M284.494,154.405c0.531-0.532,0.824-1.238,0.824-1.989c0-0.751-0.293-1.458-0.824-1.988l-10.81-10.811c-0.531-0.532-1.237-0.824-1.988-0.824c-0.752,0-1.458,0.292-1.989,0.824c-0.531,0.531-0.824,1.237-0.824,1.989c0,0.751,0.293,1.457,0.824,1.988l8.114,8.115c0.391,0.391,0.391,1.023,0,1.414l-8.114,8.114c-0.531,0.531-0.824,1.237-0.824,1.989c0,0.751,0.293,1.457,0.824,1.988c1.062,1.062,2.914,1.063,3.978,0L284.494,154.405z"/><path fill="#37c3f4" d="M267.785,149.584h-27.321c-1.551,0-2.813,1.261-2.813,2.812s1.262,2.813,2.813,2.813h27.321c1.551,0,2.813-1.262,2.813-2.813S269.336,149.584,267.785,149.584z"/><path d="M267.785,157.209h-27.321c-2.653,0-4.813-2.159-4.813-4.813c0-2.653,2.159-4.812,4.813-4.812h27.321c2.653,0,4.813,2.159,4.813,4.812C272.598,155.05,270.438,157.209,267.785,157.209z M240.464,149.584c-1.551,0-2.813,1.261-2.813,2.812s1.262,2.813,2.813,2.813h27.321c1.551,0,2.813-1.262,2.813-2.813s-1.262-2.812-2.813-2.812H240.464z"/><path fill="#fff" d="M284.494,154.405c0.531-0.532,0.824-1.238,0.824-1.989c0-0.751-0.293-1.458-0.824-1.988l-0.194-0.194c0.003,0.061,0.018,0.12,0.018,0.182c0,1.019-0.397,1.976-1.117,2.696l-10.81,10.81c-0.72,0.72-1.678,1.117-2.695,1.117c-0.05,0-0.097-0.013-0.146-0.015c0.053,0.063,0.098,0.132,0.157,0.191c1.062,1.062,2.914,1.063,3.978,0L284.494,154.405z"/><path d="M271.696,168.038c-1.286,0-2.495-0.5-3.403-1.41c-0.909-0.909-1.41-2.117-1.41-3.402c0-1.286,0.501-2.494,1.41-3.403l7.407-7.407l-7.407-7.408c-0.909-0.909-1.41-2.117-1.41-3.402c0-1.286,0.501-2.494,1.41-3.403c0.908-0.909,2.117-1.41,3.403-1.41c1.285,0,2.494,0.501,3.402,1.41l10.81,10.81c0.909,0.909,1.41,2.117,1.41,3.403c0,1.285-0.501,2.494-1.41,3.403l-10.81,10.81C274.19,167.538,272.982,168.038,271.696,168.038z M271.696,138.793c-0.752,0-1.458,0.292-1.989,0.824c-0.531,0.531-0.824,1.237-0.824,1.989c0,0.751,0.293,1.457,0.824,1.988l8.114,8.115c0.391,0.391,0.391,1.023,0,1.414l-8.114,8.114c-0.531,0.531-0.824,1.237-0.824,1.989c0,0.751,0.293,1.457,0.824,1.988c1.062,1.062,2.914,1.063,3.978,0l10.81-10.81c0.531-0.532,0.824-1.238,0.824-1.989c0-0.751-0.293-1.458-0.824-1.988l-10.81-10.811C273.153,139.085,272.447,138.793,271.696,138.793z"/><path fill="#ef3039" d="M261.279,183.584h31.003c2.794,0,5.066-2.272,5.066-5.066v-52.037c0-2.793-2.272-5.066-5.066-5.066h-31.003c-2.793,0-5.065,2.272-5.065,5.066v12.802c0,1.661,1.352,3.013,3.013,3.013c0.806,0,1.563-0.314,2.131-0.883c0.569-0.57,0.883-1.328,0.882-2.134l-0.022-10.8c-0.001-0.552,0.445-1.001,0.998-1.002l27.068-0.057c0.001,0,0.001,0,0.002,0c0.265,0,0.519,0.105,0.706,0.292c0.188,0.188,0.294,0.442,0.294,0.707l0.062,48.164c0,0.266-0.104,0.521-0.292,0.708c-0.188,0.188-0.442,0.293-0.708,0.293h-27.069c-0.552,0-0.999-0.446-1-0.998l-0.023-11.035c-0.002-1.665-1.356-3.018-3.021-3.018c-1.665,0-3.02,1.355-3.02,3.021v12.965C256.214,181.312,258.486,183.584,261.279,183.584z"/><path d="M292.282,185.584h-31.003c-3.896,0-7.065-3.17-7.065-7.066v-12.965c0-2.769,2.252-5.021,5.02-5.021c2.766,0,5.019,2.25,5.021,5.015l0.021,10.036h25.07l-0.06-46.162l-25.067,0.053l0.021,9.801c0.001,1.342-0.52,2.603-1.466,3.55c-0.947,0.948-2.207,1.47-3.547,1.47c-2.764,0-5.013-2.249-5.013-5.013v-12.802c0-3.896,3.17-7.066,7.065-7.066h31.003c3.896,0,7.066,3.17,7.066,7.066v52.037C299.349,182.415,296.179,185.584,292.282,185.584z M259.233,162.533c-1.665,0-3.02,1.355-3.02,3.021v12.965c0,2.793,2.272,5.066,5.065,5.066h31.003c2.794,0,5.066-2.272,5.066-5.066v-52.037c0-2.793-2.272-5.066-5.066-5.066h-31.003c-2.793,0-5.065,2.272-5.065,5.066v12.802c0,1.661,1.352,3.013,3.013,3.013c0.806,0,1.563-0.314,2.131-0.883c0.569-0.57,0.883-1.328,0.882-2.134l-0.022-10.8c-0.001-0.552,0.445-1.001,0.998-1.002l27.068-0.057c0.001,0,0.001,0,0.002,0c0.265,0,0.519,0.105,0.706,0.292c0.188,0.188,0.294,0.442,0.294,0.707l0.062,48.164c0,0.266-0.104,0.521-0.292,0.708c-0.188,0.188-0.442,0.293-0.708,0.293h-27.069c-0.552,0-0.999-0.446-1-0.998l-0.023-11.035C262.252,163.887,260.897,162.533,259.233,162.533z"/></g><g><path fill="#37c3f4" d="M412.66,154.573c0.531-0.531,0.824-1.237,0.824-1.989c0-0.751-0.293-1.457-0.824-1.989l-10.81-10.81c-0.531-0.531-1.237-0.824-1.988-0.824c-0.752,0-1.458,0.292-1.989,0.824s-0.824,1.237-0.824,1.988c0,0.751,0.293,1.458,0.824,1.988l8.114,8.115c0.391,0.391,0.391,1.023,0,1.414l-8.114,8.115c-0.531,0.531-0.824,1.237-0.824,1.988c0,0.751,0.293,1.458,0.824,1.988c1.061,1.063,2.913,1.064,3.978,0L412.66,154.573z"/><path fill="#37c3f4" d="M368.63,148.791c-2.103,0-3.813,1.71-3.813,3.813s1.71,3.812,3.813,3.812h27.321c2.103,0,3.813-1.71,3.813-3.812s-1.71-3.813-3.813-3.813H368.63z"/><path d="M395.951,157.416H368.63c-2.653,0-4.813-2.159-4.813-4.812c0-2.654,2.159-4.813,4.813-4.813h27.321c2.653,0,4.813,2.159,4.813,4.813C400.764,155.257,398.604,157.416,395.951,157.416z M368.63,149.791c-1.551,0-2.813,1.262-2.813,2.813s1.262,2.812,2.813,2.812h27.321c1.551,0,2.813-1.261,2.813-2.812s-1.262-2.813-2.813-2.813H368.63z"/><path fill="#fff" d="M411.523,153.436l-10.81,10.81c-0.72,0.72-1.678,1.117-2.695,1.117c-0.061,0-0.118-0.018-0.178-0.021c0.012,0.013,0.02,0.028,0.033,0.04c1.061,1.063,2.913,1.064,3.978,0l10.81-10.81c0.531-0.531,0.824-1.237,0.824-1.989c0-0.751-0.293-1.457-0.824-1.989l-0.038-0.038c0.003,0.061,0.018,0.12,0.018,0.182C412.64,151.759,412.244,152.716,411.523,153.436z"/><path d="M399.862,168.207c-1.286,0-2.495-0.501-3.403-1.41c-0.909-0.909-1.41-2.117-1.41-3.403c0-1.285,0.501-2.494,1.41-3.403l7.407-7.407l-7.407-7.407c-0.909-0.909-1.41-2.117-1.41-3.403c0-1.285,0.501-2.494,1.41-3.403c0.908-0.909,2.117-1.409,3.403-1.409s2.494,0.5,3.402,1.41l10.81,10.81c0.909,0.909,1.41,2.118,1.41,3.403c0,1.286-0.501,2.494-1.41,3.403l-10.81,10.81C402.356,167.706,401.147,168.207,399.862,168.207z M399.862,138.962c-0.752,0-1.458,0.292-1.989,0.824s-0.824,1.237-0.824,1.988c0,0.751,0.293,1.458,0.824,1.988l8.114,8.115c0.391,0.391,0.391,1.023,0,1.414l-8.114,8.115c-0.531,0.531-0.824,1.237-0.824,1.988c0,0.751,0.293,1.458,0.824,1.988c1.061,1.063,2.913,1.064,3.978,0l10.81-10.81c0.531-0.531,0.824-1.237,0.824-1.989c0-0.751-0.293-1.457-0.824-1.989l-10.81-10.81C401.319,139.254,400.613,138.962,399.862,138.962z"/><path fill="#ef3039" d="M392.65,126.481c0-2.793-2.272-5.066-5.065-5.066h-31.003c-2.794,0-5.066,2.272-5.066,5.066v52.037c0,2.793,2.272,5.066,5.066,5.066h31.003c2.793,0,5.065-2.272,5.065-5.066v-12.802c0-1.661-1.352-3.013-3.013-3.013c-0.806,0-1.563,0.314-2.131,0.883c-0.569,0.57-0.883,1.328-0.882,2.134l0.022,10.8c0.001,0.552-0.445,1.001-0.998,1.002l-27.068,0.057c-0.001,0-0.001,0-0.002,0c-0.265,0-0.519-0.105-0.706-0.292c-0.188-0.188-0.294-0.442-0.294-0.707l-0.062-48.164c0-0.266,0.104-0.521,0.292-0.708c0.188-0.188,0.442-0.293,0.708-0.293h27.069c0.552,0,0.999,0.446,1,0.998l0.023,11.035c0.002,1.665,1.356,3.018,3.021,3.018c1.665,0,3.02-1.355,3.02-3.021V126.481z"/><path d="M387.585,185.584h-31.003c-3.896,0-7.066-3.17-7.066-7.066v-52.037c0-3.896,3.17-7.066,7.066-7.066h31.003c3.896,0,7.065,3.17,7.065,7.066v12.965c0,2.769-2.252,5.021-5.02,5.021c-2.766,0-5.019-2.25-5.021-5.015l-0.021-10.036h-25.07l0.06,46.162l25.067-0.053l-0.021-9.801c-0.001-1.342,0.52-2.603,1.466-3.55c0.947-0.948,2.207-1.47,3.547-1.47c2.764,0,5.013,2.249,5.013,5.013v12.802C394.65,182.415,391.48,185.584,387.585,185.584z M356.582,121.416c-2.794,0-5.066,2.272-5.066,5.066v52.037c0,2.793,2.272,5.066,5.066,5.066h31.003c2.793,0,5.065-2.272,5.065-5.066v-12.802c0-1.661-1.352-3.013-3.013-3.013c-0.806,0-1.563,0.314-2.131,0.883c-0.569,0.57-0.883,1.328-0.882,2.134l0.022,10.8c0.001,0.552-0.445,1.001-0.998,1.002l-27.068,0.057c-0.001,0-0.001,0-0.002,0c-0.265,0-0.519-0.105-0.706-0.292c-0.188-0.188-0.294-0.442-0.294-0.707l-0.062-48.164c0-0.266,0.104-0.521,0.292-0.708c0.188-0.188,0.442-0.293,0.708-0.293h27.069c0.552,0,0.999,0.446,1,0.998l0.023,11.035c0.002,1.665,1.356,3.018,3.021,3.018c1.665,0,3.02-1.355,3.02-3.021v-12.965c0-2.793-2.272-5.066-5.065-5.066H356.582z"/></g><g><path fill="#41d88d" d="M59.081,282.774c-1.063-1.063-2.915-1.063-3.977,0l-8.115,8.114c-0.391,0.391-1.023,0.391-1.414,0l-8.114-8.114c-0.531-0.531-1.237-0.824-1.989-0.824c-0.751,0-1.457,0.293-1.988,0.824c-0.532,0.531-0.825,1.237-0.825,1.989c0,0.751,0.292,1.457,0.824,1.988l10.81,10.81c1.063,1.063,2.916,1.063,3.977,0l10.811-10.81C60.177,285.655,60.177,283.871,59.081,282.774z"/><path fill="#fff" d="M59.081,282.774c-0.124-0.124-0.26-0.23-0.403-0.325c0.03,1.011-0.328,2.031-1.098,2.801L46.77,296.06c-0.72,0.721-1.677,1.117-2.696,1.117c-0.062,0-0.121-0.015-0.182-0.018l0.402,0.402c1.063,1.063,2.916,1.063,3.977,0l10.811-10.81C60.177,285.655,60.177,283.871,59.081,282.774z"/><path d="M46.282,300.386c-1.285,0-2.494-0.501-3.403-1.41l-10.81-10.81c-0.909-0.908-1.41-2.117-1.41-3.402c0-1.286,0.501-2.495,1.41-3.403c0.909-0.909,2.117-1.41,3.402-1.41c1.286,0,2.494,0.501,3.403,1.41l7.407,7.407l7.408-7.407c0.909-0.909,2.117-1.41,3.402-1.41c1.286,0,2.494,0.501,3.403,1.41c1.875,1.876,1.875,4.929,0,6.806l-10.811,10.81C48.776,299.885,47.568,300.386,46.282,300.386z M35.472,281.95c-0.751,0-1.457,0.293-1.988,0.824c-0.532,0.531-0.825,1.237-0.825,1.989c0,0.751,0.292,1.457,0.824,1.988l10.81,10.81c1.063,1.063,2.916,1.063,3.977,0l10.811-10.81c1.096-1.097,1.096-2.881,0-3.978c-1.063-1.063-2.915-1.063-3.977,0l-8.115,8.114c-0.391,0.391-1.023,0.391-1.414,0l-8.114-8.114C36.93,282.243,36.224,281.95,35.472,281.95z"/><path fill="#41d88d" d="M46.104,282.39c1.654,0,3-1.346,3-3v-25.773c0-9.375-7.628-17.003-17.003-17.003s-17.003,7.627-17.003,17.003v19.175c0,1.654,1.346,3,3,3c1.654,0,3-1.346,3-3v-19.175c0-6.067,4.937-11.003,11.004-11.003c0.351,0,0.706,0.017,1.063,0.05c5.574,0.525,9.94,5.491,9.94,11.305l0,25.421C43.104,281.044,44.449,282.39,46.104,282.39z"/><path d="M46.104,284.39c-2.757,0-5-2.243-5-5l0-25.421c0-4.793-3.57-8.884-8.127-9.313c-5.358-0.5-9.88,3.708-9.88,8.961v19.175c0,2.757-2.243,5-5,5s-5-2.243-5-5v-19.175c0-10.478,8.525-19.003,19.003-19.003c10.479,0,19.003,8.525,19.003,19.003v25.773C51.104,282.146,48.86,284.39,46.104,284.39z M32.101,242.614c0.351,0,0.706,0.017,1.063,0.05c5.574,0.525,9.94,5.491,9.94,11.305l0,25.421c0,1.654,1.346,3,3,3s3-1.346,3-3v-25.773c0-9.375-7.628-17.003-17.003-17.003s-17.003,7.627-17.003,17.003v19.175c0,1.654,1.346,3,3,3c1.654,0,3-1.346,3-3v-19.175C21.097,247.55,26.033,242.614,32.101,242.614z"/></g><g><path fill="#f28c1c" d="M271.516,401.752c0.531-0.531,0.824-1.237,0.824-1.988c0-0.752-0.293-1.458-0.824-1.988c-1.063-1.064-2.915-1.063-3.976-0.001l-8.115,8.114c-0.391,0.391-1.023,0.391-1.414,0l-8.115-8.114c-0.531-0.531-1.237-0.824-1.988-0.824s-1.457,0.293-1.987,0.824c-1.098,1.097-1.098,2.881-0.002,3.978l10.811,10.81c1.063,1.063,2.915,1.063,3.978,0L271.516,401.752z"/><path fill="#fff" d="M260.743,412.525c-0.061,0.003-0.12,0.018-0.182,0.018c-1.019,0-1.976-0.396-2.696-1.117l-10.811-10.81c-0.79-0.791-1.143-1.843-1.089-2.879c-0.015,0.014-0.032,0.024-0.046,0.038c-1.098,1.097-1.098,2.881-0.002,3.978l10.811,10.81c1.063,1.063,2.915,1.063,3.978,0L260.743,412.525z"/><path d="M258.718,415.386c-1.285,0-2.494-0.501-3.403-1.41l-10.811-10.81c-1.876-1.877-1.875-4.93,0.001-6.806c0.908-0.909,2.116-1.41,3.402-1.41s2.494,0.501,3.403,1.41l7.407,7.407l7.407-7.407c0.908-0.909,2.116-1.41,3.402-1.41s2.494,0.501,3.403,1.41c0.908,0.908,1.409,2.116,1.409,3.403c0,1.286-0.501,2.494-1.41,3.403l-10.81,10.809C261.211,414.885,260.003,415.386,258.718,415.386z M247.907,396.95c-0.751,0-1.457,0.293-1.987,0.824c-1.098,1.097-1.098,2.881-0.002,3.978l10.811,10.81c1.063,1.063,2.915,1.063,3.978,0l10.81-10.81c0.531-0.531,0.824-1.237,0.824-1.988c0-0.752-0.293-1.458-0.824-1.988c-1.063-1.064-2.915-1.063-3.976-0.001l-8.115,8.114c-0.391,0.391-1.023,0.391-1.414,0l-8.115-8.114C249.364,397.243,248.658,396.95,247.907,396.95z"/><path fill="#f28c1c" d="M286.902,390.792c1.654,0,3-1.346,3-3v-19.175c0-9.375-7.628-17.003-17.003-17.003s-17.003,7.628-17.003,17.003v25.772c0,1.654,1.346,3,3,3s3-1.346,3-3l-0.001-25.421c0-5.814,4.366-10.779,9.94-11.304c6.513-0.619,12.067,4.533,12.067,10.952v19.175C283.903,389.446,285.249,390.792,286.902,390.792z"/><path d="M258.896,399.39c-2.757,0-5-2.243-5-5v-25.772c0-10.479,8.524-19.003,19.003-19.003s19.003,8.524,19.003,19.003v19.175c0,2.757-2.243,5-5,5s-4.999-2.243-4.999-5v-19.175c0-5.253-4.528-9.47-9.878-8.962c-4.56,0.43-8.13,4.521-8.13,9.313l0.001,25.421C263.896,397.146,261.653,399.39,258.896,399.39z M272.899,351.614c-9.375,0-17.003,7.628-17.003,17.003v25.772c0,1.654,1.346,3,3,3s3-1.346,3-3l-0.001-25.421c0-5.814,4.366-10.779,9.94-11.304c6.513-0.619,12.067,4.533,12.067,10.952v19.175c0,1.654,1.346,3,2.999,3c1.654,0,3-1.346,3-3v-19.175C289.902,359.242,282.274,351.614,272.899,351.614z"/></g></svg>