<svg xmlns="http://www.w3.org/2000/svg" viewBox="0 0 64 64"><path fill="#FFF" d="M32 3C15.984 3 3 15.984 3 32s12.984 29 29 29 29-12.984 29-29S48.016 3 32 3zm-2 9.48a1.98 1.98 0 0 1 1.98-1.98h.04A1.98 1.98 0 0 1 34 12.48v12.04a1.98 1.98 0 0 1-1.98 1.98h-.04A1.98 1.98 0 0 1 30 24.52V12.48zM32 51c-10.201 0-18.5-8.299-18.5-18.5 0-8.099 5.239-14.982 12.5-17.482v7.69c-3.292 2.025-5.5 5.651-5.5 9.792C20.5 38.841 25.659 44 32 44s11.5-5.159 11.5-11.5c0-4.141-2.208-7.767-5.5-9.792v-7.69c7.261 2.5 12.5 9.383 12.5 17.482C50.5 42.701 42.201 51 32 51z"/><path fill="#F15439" d="M38 15.018v7.69c3.292 2.025 5.5 5.651 5.5 9.792C43.5 38.841 38.341 44 32 44s-11.5-5.159-11.5-11.5c0-4.141 2.208-7.767 5.5-9.792v-7.69c-7.261 2.5-12.5 9.383-12.5 17.482C13.5 42.701 21.799 51 32 51s18.5-8.299 18.5-18.5c0-8.099-5.239-14.982-12.5-17.482z"/><path fill="#399BB9" d="M31.98 26.5h.04A1.98 1.98 0 0 0 34 24.52V12.48a1.98 1.98 0 0 0-1.98-1.98h-.04A1.98 1.98 0 0 0 30 12.48v12.04a1.98 1.98 0 0 0 1.98 1.98z"/><path d="M32 62C15.458 62 2 48.542 2 32S15.458 2 32 2s30 13.458 30 30-13.458 30-30 30zm0-58C16.561 4 4 16.561 4 32s12.561 28 28 28 28-12.561 28-28S47.439 4 32 4z"/><path d="M32 52c-10.752 0-19.5-8.748-19.5-19.5 0-8.31 5.295-15.715 13.175-18.427L27 13.617v9.649l-.477.293c-3.146 1.936-5.023 5.277-5.023 8.94C21.5 38.29 26.21 43 32 43s10.5-4.71 10.5-10.5c0-3.663-1.878-7.005-5.023-8.94L37 23.267v-9.649l1.325.456C46.205 16.785 51.5 24.19 51.5 32.5 51.5 43.252 42.752 52 32 52zm-7-35.52c-6.335 2.77-10.5 9.039-10.5 16.02C14.5 42.149 22.351 50 32 50s17.5-7.851 17.5-17.5c0-6.98-4.165-13.25-10.5-16.02v5.683c3.455 2.339 5.5 6.162 5.5 10.337C44.5 39.393 38.893 45 32 45s-12.5-5.607-12.5-12.5c0-4.175 2.045-7.998 5.5-10.337V16.48z"/><path d="M32.02 27.5h-.04A2.983 2.983 0 0 1 29 24.52V12.48a2.983 2.983 0 0 1 2.98-2.98c1.683 0 3.02 1.337 3.02 2.98v12.04a2.984 2.984 0 0 1-2.98 2.98zm0-16c-.58 0-1.02.439-1.02.98v12.04c0 .541.439.98.98.98h.039a.98.98 0 0 0 .98-.98V12.48a.979.979 0 0 0-.979-.98z"/></svg>